%TF.GenerationSoftware,KiCad,Pcbnew,(5.1.10)-1*%
%TF.CreationDate,2021-12-08T00:23:12-08:00*%
%TF.ProjectId,Climbing_Main_Rev_A,436c696d-6269-46e6-975f-4d61696e5f52,rev?*%
%TF.SameCoordinates,Original*%
%TF.FileFunction,Legend,Top*%
%TF.FilePolarity,Positive*%
%FSLAX46Y46*%
G04 Gerber Fmt 4.6, Leading zero omitted, Abs format (unit mm)*
G04 Created by KiCad (PCBNEW (5.1.10)-1) date 2021-12-08 00:23:12*
%MOMM*%
%LPD*%
G01*
G04 APERTURE LIST*
%ADD10C,0.100000*%
%ADD11C,0.150000*%
%ADD12C,0.127000*%
%ADD13C,0.200000*%
%ADD14C,0.120000*%
%ADD15C,1.200000*%
%ADD16C,1.600000*%
%ADD17R,1.600000X1.600000*%
%ADD18R,1.680000X1.680000*%
%ADD19C,1.600200*%
%ADD20C,1.905000*%
%ADD21R,1.400000X2.100000*%
%ADD22R,0.700000X0.450000*%
%ADD23R,0.450000X0.700000*%
%ADD24R,0.800000X0.900000*%
%ADD25R,0.900000X0.800000*%
%ADD26R,0.850000X0.650000*%
%ADD27O,1.700000X1.700000*%
%ADD28R,1.700000X1.700000*%
%ADD29C,0.650000*%
%ADD30R,2.180000X2.000000*%
%ADD31R,0.300000X1.150000*%
%ADD32R,0.600000X1.150000*%
G04 APERTURE END LIST*
D10*
G36*
X136180000Y-84621000D02*
G01*
X136434000Y-84875000D01*
X136053000Y-85129000D01*
X135799000Y-84875000D01*
X136180000Y-84621000D01*
G37*
X136180000Y-84621000D02*
X136434000Y-84875000D01*
X136053000Y-85129000D01*
X135799000Y-84875000D01*
X136180000Y-84621000D01*
G36*
X137196000Y-83859000D02*
G01*
X137450000Y-84113000D01*
X137069000Y-84367000D01*
X136815000Y-84113000D01*
X137196000Y-83859000D01*
G37*
X137196000Y-83859000D02*
X137450000Y-84113000D01*
X137069000Y-84367000D01*
X136815000Y-84113000D01*
X137196000Y-83859000D01*
G36*
X136434000Y-83097000D02*
G01*
X136688000Y-83351000D01*
X136307000Y-83605000D01*
X136053000Y-83351000D01*
X136434000Y-83097000D01*
G37*
X136434000Y-83097000D02*
X136688000Y-83351000D01*
X136307000Y-83605000D01*
X136053000Y-83351000D01*
X136434000Y-83097000D01*
G36*
X136561000Y-85002000D02*
G01*
X136815000Y-85256000D01*
X136434000Y-85510000D01*
X136180000Y-85256000D01*
X136561000Y-85002000D01*
G37*
X136561000Y-85002000D02*
X136815000Y-85256000D01*
X136434000Y-85510000D01*
X136180000Y-85256000D01*
X136561000Y-85002000D01*
G36*
X136815000Y-83478000D02*
G01*
X137069000Y-83732000D01*
X136688000Y-83986000D01*
X136434000Y-83732000D01*
X136815000Y-83478000D01*
G37*
X136815000Y-83478000D02*
X137069000Y-83732000D01*
X136688000Y-83986000D01*
X136434000Y-83732000D01*
X136815000Y-83478000D01*
G36*
X136053000Y-85383000D02*
G01*
X136307000Y-85637000D01*
X135926000Y-85891000D01*
X135672000Y-85637000D01*
X136053000Y-85383000D01*
G37*
X136053000Y-85383000D02*
X136307000Y-85637000D01*
X135926000Y-85891000D01*
X135672000Y-85637000D01*
X136053000Y-85383000D01*
G36*
X136688000Y-84240000D02*
G01*
X136942000Y-84494000D01*
X136561000Y-84748000D01*
X136307000Y-84494000D01*
X136688000Y-84240000D01*
G37*
X136688000Y-84240000D02*
X136942000Y-84494000D01*
X136561000Y-84748000D01*
X136307000Y-84494000D01*
X136688000Y-84240000D01*
G36*
X137069000Y-84621000D02*
G01*
X137323000Y-84875000D01*
X136942000Y-85129000D01*
X136688000Y-84875000D01*
X137069000Y-84621000D01*
G37*
X137069000Y-84621000D02*
X137323000Y-84875000D01*
X136942000Y-85129000D01*
X136688000Y-84875000D01*
X137069000Y-84621000D01*
D11*
X161036000Y-73152000D02*
X161036000Y-90932000D01*
X125476000Y-73152000D02*
X161036000Y-73152000D01*
X125476000Y-90932000D02*
X125476000Y-73152000D01*
X161036000Y-90932000D02*
X125476000Y-90932000D01*
X130556000Y-84292000D02*
X128016000Y-84292000D01*
X130556000Y-79792000D02*
X130556000Y-84292000D01*
X128016000Y-79792000D02*
X130556000Y-79792000D01*
X128006000Y-84292000D02*
X128016000Y-79792000D01*
X155956000Y-78232000D02*
X161036000Y-78232000D01*
X155956000Y-85852000D02*
X161036000Y-85852000D01*
X155956000Y-78232000D02*
X155956000Y-85852000D01*
X162306000Y-85852000D02*
X161036000Y-85852000D01*
X162306000Y-78232000D02*
X162306000Y-85852000D01*
X161036000Y-78232000D02*
X162306000Y-78232000D01*
X131256000Y-82042000D02*
X136256000Y-87042000D01*
X136256000Y-87042000D02*
X141256000Y-82042000D01*
X141256000Y-82042000D02*
X136256000Y-77042000D01*
X136256000Y-77042000D02*
X131256000Y-82042000D01*
X130256000Y-82792000D02*
X130256000Y-81292000D01*
X128256000Y-81292000D02*
X128256000Y-82792000D01*
X128006000Y-83792000D02*
X128506000Y-84292000D01*
X128506000Y-84292000D02*
X130006000Y-84292000D01*
X130506000Y-83792000D02*
X130006000Y-84292000D01*
X128006000Y-80292000D02*
X128506000Y-79792000D01*
X130556000Y-79792000D02*
X130006000Y-79792000D01*
X130006000Y-79792000D02*
X130506000Y-80292000D01*
X130256000Y-82792000D02*
G75*
G02*
X128256000Y-82792000I-1000000J0D01*
G01*
X128256000Y-81292000D02*
G75*
G02*
X130256000Y-81292000I1000000J0D01*
G01*
D12*
X163092000Y-103989000D02*
X163392000Y-103989000D01*
X166092000Y-103989000D02*
X165792000Y-103989000D01*
X163092000Y-100989000D02*
X163392000Y-100989000D01*
X166092000Y-100989000D02*
X165792000Y-100989000D01*
X163092000Y-103989000D02*
X163092000Y-103689000D01*
X166092000Y-103989000D02*
X166092000Y-103689000D01*
X163092000Y-100989000D02*
X163092000Y-101289000D01*
X166092000Y-100989000D02*
X166092000Y-101289000D01*
D13*
X163742000Y-104964000D02*
G75*
G03*
X163742000Y-104964000I-100000J0D01*
G01*
D14*
X125552200Y-124409200D02*
X134594600Y-124409200D01*
X134594600Y-124409200D02*
X134594600Y-92303600D01*
X134594600Y-92303600D02*
X133465684Y-92303600D01*
X125552200Y-92303600D02*
X125552200Y-124409200D01*
X126681116Y-92303600D02*
X125552200Y-92303600D01*
X132573916Y-92303600D02*
X127572884Y-92303600D01*
X125298200Y-93345000D02*
G75*
G03*
X125298200Y-93345000I-381000J0D01*
G01*
D13*
X164170000Y-95150000D02*
G75*
G03*
X164170000Y-95150000I-100000J0D01*
G01*
D12*
X163370000Y-85900000D02*
X163370000Y-91900000D01*
X169370000Y-91900000D02*
X163370000Y-91900000D01*
X169370000Y-85900000D02*
X169370000Y-91900000D01*
X163370000Y-85900000D02*
X169370000Y-85900000D01*
X169370000Y-79200000D02*
X163370000Y-79200000D01*
X163370000Y-79200000D02*
X163370000Y-73200000D01*
X163370000Y-73200000D02*
X169370000Y-73200000D01*
X169370000Y-79200000D02*
X169370000Y-73200000D01*
D13*
X168770000Y-69950000D02*
G75*
G03*
X168770000Y-69950000I-100000J0D01*
G01*
D14*
X159485359Y-108205000D02*
X159792641Y-108205000D01*
X159485359Y-108965000D02*
X159792641Y-108965000D01*
X158268641Y-106933000D02*
X157961359Y-106933000D01*
X158268641Y-106173000D02*
X157961359Y-106173000D01*
X158903641Y-102107000D02*
X158596359Y-102107000D01*
X158903641Y-101347000D02*
X158596359Y-101347000D01*
X169292000Y-108103641D02*
X169292000Y-107796359D01*
X170052000Y-108103641D02*
X170052000Y-107796359D01*
X161136359Y-103887000D02*
X161443641Y-103887000D01*
X161136359Y-104647000D02*
X161443641Y-104647000D01*
X161443641Y-103504000D02*
X161136359Y-103504000D01*
X161443641Y-102744000D02*
X161136359Y-102744000D01*
X145922000Y-94715359D02*
X145922000Y-95022641D01*
X145162000Y-94715359D02*
X145162000Y-95022641D01*
X144779000Y-94715359D02*
X144779000Y-95022641D01*
X144019000Y-94715359D02*
X144019000Y-95022641D01*
X148843000Y-101954359D02*
X148843000Y-102261641D01*
X148083000Y-101954359D02*
X148083000Y-102261641D01*
X143737359Y-100077000D02*
X144044641Y-100077000D01*
X143737359Y-100837000D02*
X144044641Y-100837000D01*
X148972000Y-95022641D02*
X148972000Y-94715359D01*
X149732000Y-95022641D02*
X149732000Y-94715359D01*
X161703000Y-107958000D02*
X161703000Y-107298000D01*
X161703000Y-109618000D02*
X161703000Y-108958000D01*
X161703000Y-109618000D02*
X163733000Y-109618000D01*
X163113000Y-107298000D02*
X161703000Y-107298000D01*
X157107000Y-104870000D02*
X156447000Y-104870000D01*
X158767000Y-104870000D02*
X158107000Y-104870000D01*
X158767000Y-104870000D02*
X158767000Y-102840000D01*
X156447000Y-103460000D02*
X156447000Y-104870000D01*
X168585000Y-107190000D02*
X167655000Y-107190000D01*
X165425000Y-107190000D02*
X166355000Y-107190000D01*
X165425000Y-107190000D02*
X165425000Y-109350000D01*
X168585000Y-107190000D02*
X168585000Y-108650000D01*
X152525000Y-96322000D02*
X152525000Y-95392000D01*
X152525000Y-93162000D02*
X152525000Y-94092000D01*
X152525000Y-93162000D02*
X150365000Y-93162000D01*
X152525000Y-96322000D02*
X151065000Y-96322000D01*
D12*
X155756000Y-109458000D02*
X156156000Y-109458000D01*
D13*
X155056000Y-109858000D02*
G75*
G03*
X155056000Y-109858000I-100000J0D01*
G01*
D12*
X155756000Y-107458000D02*
X156156000Y-107458000D01*
D14*
X152970070Y-72050700D02*
X152970070Y-69390700D01*
X145290070Y-72050700D02*
X152970070Y-72050700D01*
X145290070Y-69390700D02*
X152970070Y-69390700D01*
X145290070Y-72050700D02*
X145290070Y-69390700D01*
X144020070Y-72050700D02*
X142690070Y-72050700D01*
X142690070Y-72050700D02*
X142690070Y-70720700D01*
D13*
X143132000Y-102926000D02*
G75*
G03*
X143132000Y-102926000I-100000J0D01*
G01*
X151282000Y-106016000D02*
X151282000Y-107226000D01*
X142342000Y-106016000D02*
X142342000Y-107226000D01*
X151282000Y-111436000D02*
X151282000Y-109946000D01*
X142342000Y-111436000D02*
X151282000Y-111436000D01*
X142342000Y-109946000D02*
X142342000Y-111436000D01*
D14*
X167251748Y-104370200D02*
X167774252Y-104370200D01*
X167251748Y-105840200D02*
X167774252Y-105840200D01*
X165000000Y-98051252D02*
X165000000Y-97528748D01*
X166470000Y-98051252D02*
X166470000Y-97528748D01*
X161805252Y-106653000D02*
X161282748Y-106653000D01*
X161805252Y-105183000D02*
X161282748Y-105183000D01*
X162714000Y-98051252D02*
X162714000Y-97528748D01*
X164184000Y-98051252D02*
X164184000Y-97528748D01*
X160907000Y-101105580D02*
X160907000Y-100824420D01*
X161927000Y-101105580D02*
X161927000Y-100824420D01*
X151503748Y-97055000D02*
X152026252Y-97055000D01*
X151503748Y-98525000D02*
X152026252Y-98525000D01*
X150608420Y-101598000D02*
X150889580Y-101598000D01*
X150608420Y-102618000D02*
X150889580Y-102618000D01*
X150895164Y-99081000D02*
X151110836Y-99081000D01*
X150895164Y-99801000D02*
X151110836Y-99801000D01*
X143523580Y-102364000D02*
X143242420Y-102364000D01*
X143523580Y-101344000D02*
X143242420Y-101344000D01*
D12*
X142772190Y-91854261D02*
X142772190Y-92368309D01*
X142802428Y-92428785D01*
X142832666Y-92459023D01*
X142893142Y-92489261D01*
X143014095Y-92489261D01*
X143074571Y-92459023D01*
X143104809Y-92428785D01*
X143135047Y-92368309D01*
X143135047Y-91854261D01*
X143709571Y-92065928D02*
X143709571Y-92489261D01*
X143558380Y-91824023D02*
X143407190Y-92277595D01*
X143800285Y-92277595D01*
X132869333Y-82269261D02*
X132869333Y-81634261D01*
X133081000Y-82087833D01*
X133292666Y-81634261D01*
X133292666Y-82269261D01*
X133595047Y-82269261D02*
X133595047Y-81634261D01*
X133957904Y-82269261D02*
X133685761Y-81906404D01*
X133957904Y-81634261D02*
X133595047Y-81997119D01*
X134532428Y-82269261D02*
X134230047Y-82269261D01*
X134230047Y-81634261D01*
X134713857Y-81694738D02*
X134744095Y-81664500D01*
X134804571Y-81634261D01*
X134955761Y-81634261D01*
X135016238Y-81664500D01*
X135046476Y-81694738D01*
X135076714Y-81755214D01*
X135076714Y-81815690D01*
X135046476Y-81906404D01*
X134683619Y-82269261D01*
X135076714Y-82269261D01*
X135621000Y-81634261D02*
X135500047Y-81634261D01*
X135439571Y-81664500D01*
X135409333Y-81694738D01*
X135348857Y-81785452D01*
X135318619Y-81906404D01*
X135318619Y-82148309D01*
X135348857Y-82208785D01*
X135379095Y-82239023D01*
X135439571Y-82269261D01*
X135560523Y-82269261D01*
X135621000Y-82239023D01*
X135651238Y-82208785D01*
X135681476Y-82148309D01*
X135681476Y-81997119D01*
X135651238Y-81936642D01*
X135621000Y-81906404D01*
X135560523Y-81876166D01*
X135439571Y-81876166D01*
X135379095Y-81906404D01*
X135348857Y-81936642D01*
X135318619Y-81997119D01*
X135893142Y-81634261D02*
X136316476Y-81634261D01*
X135893142Y-82269261D01*
X136316476Y-82269261D01*
X136830523Y-81634261D02*
X136709571Y-81634261D01*
X136649095Y-81664500D01*
X136618857Y-81694738D01*
X136558380Y-81785452D01*
X136528142Y-81906404D01*
X136528142Y-82148309D01*
X136558380Y-82208785D01*
X136588619Y-82239023D01*
X136649095Y-82269261D01*
X136770047Y-82269261D01*
X136830523Y-82239023D01*
X136860761Y-82208785D01*
X136891000Y-82148309D01*
X136891000Y-81997119D01*
X136860761Y-81936642D01*
X136830523Y-81906404D01*
X136770047Y-81876166D01*
X136649095Y-81876166D01*
X136588619Y-81906404D01*
X136558380Y-81936642D01*
X136528142Y-81997119D01*
X137435285Y-81845928D02*
X137435285Y-82269261D01*
X137284095Y-81604023D02*
X137132904Y-82057595D01*
X137526000Y-82057595D01*
X137677190Y-81634261D02*
X137888857Y-82269261D01*
X138100523Y-81634261D01*
X138523857Y-81936642D02*
X138312190Y-81936642D01*
X138312190Y-82269261D02*
X138312190Y-81634261D01*
X138614571Y-81634261D01*
X138765761Y-81634261D02*
X139128619Y-81634261D01*
X138947190Y-82269261D02*
X138947190Y-81634261D01*
X139612428Y-81845928D02*
X139612428Y-82269261D01*
X139461238Y-81604023D02*
X139310047Y-82057595D01*
X139703142Y-82057595D01*
X168172190Y-102522261D02*
X168172190Y-103036309D01*
X168202428Y-103096785D01*
X168232666Y-103127023D01*
X168293142Y-103157261D01*
X168414095Y-103157261D01*
X168474571Y-103127023D01*
X168504809Y-103096785D01*
X168535047Y-103036309D01*
X168535047Y-102522261D01*
X168776952Y-102522261D02*
X169170047Y-102522261D01*
X168958380Y-102764166D01*
X169049095Y-102764166D01*
X169109571Y-102794404D01*
X169139809Y-102824642D01*
X169170047Y-102885119D01*
X169170047Y-103036309D01*
X169139809Y-103096785D01*
X169109571Y-103127023D01*
X169049095Y-103157261D01*
X168867666Y-103157261D01*
X168807190Y-103127023D01*
X168776952Y-103096785D01*
X129280333Y-88602023D02*
X129371047Y-88632261D01*
X129522238Y-88632261D01*
X129582714Y-88602023D01*
X129612952Y-88571785D01*
X129643190Y-88511309D01*
X129643190Y-88450833D01*
X129612952Y-88390357D01*
X129582714Y-88360119D01*
X129522238Y-88329880D01*
X129401285Y-88299642D01*
X129340809Y-88269404D01*
X129310571Y-88239166D01*
X129280333Y-88178690D01*
X129280333Y-88118214D01*
X129310571Y-88057738D01*
X129340809Y-88027500D01*
X129401285Y-87997261D01*
X129552476Y-87997261D01*
X129643190Y-88027500D01*
X129854857Y-87997261D02*
X130006047Y-88632261D01*
X130127000Y-88178690D01*
X130247952Y-88632261D01*
X130399142Y-87997261D01*
X130580571Y-87997261D02*
X130973666Y-87997261D01*
X130762000Y-88239166D01*
X130852714Y-88239166D01*
X130913190Y-88269404D01*
X130943428Y-88299642D01*
X130973666Y-88360119D01*
X130973666Y-88511309D01*
X130943428Y-88571785D01*
X130913190Y-88602023D01*
X130852714Y-88632261D01*
X130671285Y-88632261D01*
X130610809Y-88602023D01*
X130580571Y-88571785D01*
X127127000Y-92997261D02*
X127127000Y-93148452D01*
X126975809Y-93087976D02*
X127127000Y-93148452D01*
X127278190Y-93087976D01*
X127036285Y-93269404D02*
X127127000Y-93148452D01*
X127217714Y-93269404D01*
X162392023Y-89771666D02*
X162422261Y-89680952D01*
X162422261Y-89529761D01*
X162392023Y-89469285D01*
X162361785Y-89439047D01*
X162301309Y-89408809D01*
X162240833Y-89408809D01*
X162180357Y-89439047D01*
X162150119Y-89469285D01*
X162119880Y-89529761D01*
X162089642Y-89650714D01*
X162059404Y-89711190D01*
X162029166Y-89741428D01*
X161968690Y-89771666D01*
X161908214Y-89771666D01*
X161847738Y-89741428D01*
X161817500Y-89711190D01*
X161787261Y-89650714D01*
X161787261Y-89499523D01*
X161817500Y-89408809D01*
X161787261Y-89197142D02*
X162422261Y-89045952D01*
X161968690Y-88925000D01*
X162422261Y-88804047D01*
X161787261Y-88652857D01*
X161847738Y-88441190D02*
X161817500Y-88410952D01*
X161787261Y-88350476D01*
X161787261Y-88199285D01*
X161817500Y-88138809D01*
X161847738Y-88108571D01*
X161908214Y-88078333D01*
X161968690Y-88078333D01*
X162059404Y-88108571D01*
X162422261Y-88471428D01*
X162422261Y-88078333D01*
X170862023Y-77021666D02*
X170892261Y-76930952D01*
X170892261Y-76779761D01*
X170862023Y-76719285D01*
X170831785Y-76689047D01*
X170771309Y-76658809D01*
X170710833Y-76658809D01*
X170650357Y-76689047D01*
X170620119Y-76719285D01*
X170589880Y-76779761D01*
X170559642Y-76900714D01*
X170529404Y-76961190D01*
X170499166Y-76991428D01*
X170438690Y-77021666D01*
X170378214Y-77021666D01*
X170317738Y-76991428D01*
X170287500Y-76961190D01*
X170257261Y-76900714D01*
X170257261Y-76749523D01*
X170287500Y-76658809D01*
X170257261Y-76447142D02*
X170892261Y-76295952D01*
X170438690Y-76175000D01*
X170892261Y-76054047D01*
X170257261Y-75902857D01*
X170892261Y-75328333D02*
X170892261Y-75691190D01*
X170892261Y-75509761D02*
X170257261Y-75509761D01*
X170347976Y-75570238D01*
X170408452Y-75630714D01*
X170438690Y-75691190D01*
X159230785Y-109888261D02*
X159019119Y-109585880D01*
X158867928Y-109888261D02*
X158867928Y-109253261D01*
X159109833Y-109253261D01*
X159170309Y-109283500D01*
X159200547Y-109313738D01*
X159230785Y-109374214D01*
X159230785Y-109464928D01*
X159200547Y-109525404D01*
X159170309Y-109555642D01*
X159109833Y-109585880D01*
X158867928Y-109585880D01*
X159835547Y-109888261D02*
X159472690Y-109888261D01*
X159654119Y-109888261D02*
X159654119Y-109253261D01*
X159593642Y-109343976D01*
X159533166Y-109404452D01*
X159472690Y-109434690D01*
X160379833Y-109464928D02*
X160379833Y-109888261D01*
X160228642Y-109223023D02*
X160077452Y-109676595D01*
X160470547Y-109676595D01*
X159103785Y-107856261D02*
X158892119Y-107553880D01*
X158740928Y-107856261D02*
X158740928Y-107221261D01*
X158982833Y-107221261D01*
X159043309Y-107251500D01*
X159073547Y-107281738D01*
X159103785Y-107342214D01*
X159103785Y-107432928D01*
X159073547Y-107493404D01*
X159043309Y-107523642D01*
X158982833Y-107553880D01*
X158740928Y-107553880D01*
X159708547Y-107856261D02*
X159345690Y-107856261D01*
X159527119Y-107856261D02*
X159527119Y-107221261D01*
X159466642Y-107311976D01*
X159406166Y-107372452D01*
X159345690Y-107402690D01*
X159920214Y-107221261D02*
X160313309Y-107221261D01*
X160101642Y-107463166D01*
X160192357Y-107463166D01*
X160252833Y-107493404D01*
X160283071Y-107523642D01*
X160313309Y-107584119D01*
X160313309Y-107735309D01*
X160283071Y-107795785D01*
X160252833Y-107826023D01*
X160192357Y-107856261D01*
X160010928Y-107856261D01*
X159950452Y-107826023D01*
X159920214Y-107795785D01*
X156309785Y-102014261D02*
X156098119Y-101711880D01*
X155946928Y-102014261D02*
X155946928Y-101379261D01*
X156188833Y-101379261D01*
X156249309Y-101409500D01*
X156279547Y-101439738D01*
X156309785Y-101500214D01*
X156309785Y-101590928D01*
X156279547Y-101651404D01*
X156249309Y-101681642D01*
X156188833Y-101711880D01*
X155946928Y-101711880D01*
X156914547Y-102014261D02*
X156551690Y-102014261D01*
X156733119Y-102014261D02*
X156733119Y-101379261D01*
X156672642Y-101469976D01*
X156612166Y-101530452D01*
X156551690Y-101560690D01*
X157156452Y-101439738D02*
X157186690Y-101409500D01*
X157247166Y-101379261D01*
X157398357Y-101379261D01*
X157458833Y-101409500D01*
X157489071Y-101439738D01*
X157519309Y-101500214D01*
X157519309Y-101560690D01*
X157489071Y-101651404D01*
X157126214Y-102014261D01*
X157519309Y-102014261D01*
X171102261Y-107088214D02*
X170799880Y-107299880D01*
X171102261Y-107451071D02*
X170467261Y-107451071D01*
X170467261Y-107209166D01*
X170497500Y-107148690D01*
X170527738Y-107118452D01*
X170588214Y-107088214D01*
X170678928Y-107088214D01*
X170739404Y-107118452D01*
X170769642Y-107148690D01*
X170799880Y-107209166D01*
X170799880Y-107451071D01*
X171102261Y-106483452D02*
X171102261Y-106846309D01*
X171102261Y-106664880D02*
X170467261Y-106664880D01*
X170557976Y-106725357D01*
X170618452Y-106785833D01*
X170648690Y-106846309D01*
X171102261Y-105878690D02*
X171102261Y-106241547D01*
X171102261Y-106060119D02*
X170467261Y-106060119D01*
X170557976Y-106120595D01*
X170618452Y-106181071D01*
X170648690Y-106241547D01*
X159533166Y-104554261D02*
X159321500Y-104251880D01*
X159170309Y-104554261D02*
X159170309Y-103919261D01*
X159412214Y-103919261D01*
X159472690Y-103949500D01*
X159502928Y-103979738D01*
X159533166Y-104040214D01*
X159533166Y-104130928D01*
X159502928Y-104191404D01*
X159472690Y-104221642D01*
X159412214Y-104251880D01*
X159170309Y-104251880D01*
X159896023Y-104191404D02*
X159835547Y-104161166D01*
X159805309Y-104130928D01*
X159775071Y-104070452D01*
X159775071Y-104040214D01*
X159805309Y-103979738D01*
X159835547Y-103949500D01*
X159896023Y-103919261D01*
X160016976Y-103919261D01*
X160077452Y-103949500D01*
X160107690Y-103979738D01*
X160137928Y-104040214D01*
X160137928Y-104070452D01*
X160107690Y-104130928D01*
X160077452Y-104161166D01*
X160016976Y-104191404D01*
X159896023Y-104191404D01*
X159835547Y-104221642D01*
X159805309Y-104251880D01*
X159775071Y-104312357D01*
X159775071Y-104433309D01*
X159805309Y-104493785D01*
X159835547Y-104524023D01*
X159896023Y-104554261D01*
X160016976Y-104554261D01*
X160077452Y-104524023D01*
X160107690Y-104493785D01*
X160137928Y-104433309D01*
X160137928Y-104312357D01*
X160107690Y-104251880D01*
X160077452Y-104221642D01*
X160016976Y-104191404D01*
X159533166Y-103411261D02*
X159321500Y-103108880D01*
X159170309Y-103411261D02*
X159170309Y-102776261D01*
X159412214Y-102776261D01*
X159472690Y-102806500D01*
X159502928Y-102836738D01*
X159533166Y-102897214D01*
X159533166Y-102987928D01*
X159502928Y-103048404D01*
X159472690Y-103078642D01*
X159412214Y-103108880D01*
X159170309Y-103108880D01*
X159744833Y-102776261D02*
X160168166Y-102776261D01*
X159896023Y-103411261D01*
X145829261Y-93323833D02*
X145526880Y-93535500D01*
X145829261Y-93686690D02*
X145194261Y-93686690D01*
X145194261Y-93444785D01*
X145224500Y-93384309D01*
X145254738Y-93354071D01*
X145315214Y-93323833D01*
X145405928Y-93323833D01*
X145466404Y-93354071D01*
X145496642Y-93384309D01*
X145526880Y-93444785D01*
X145526880Y-93686690D01*
X145194261Y-92779547D02*
X145194261Y-92900500D01*
X145224500Y-92960976D01*
X145254738Y-92991214D01*
X145345452Y-93051690D01*
X145466404Y-93081928D01*
X145708309Y-93081928D01*
X145768785Y-93051690D01*
X145799023Y-93021452D01*
X145829261Y-92960976D01*
X145829261Y-92840023D01*
X145799023Y-92779547D01*
X145768785Y-92749309D01*
X145708309Y-92719071D01*
X145557119Y-92719071D01*
X145496642Y-92749309D01*
X145466404Y-92779547D01*
X145436166Y-92840023D01*
X145436166Y-92960976D01*
X145466404Y-93021452D01*
X145496642Y-93051690D01*
X145557119Y-93081928D01*
X144686261Y-93323833D02*
X144383880Y-93535500D01*
X144686261Y-93686690D02*
X144051261Y-93686690D01*
X144051261Y-93444785D01*
X144081500Y-93384309D01*
X144111738Y-93354071D01*
X144172214Y-93323833D01*
X144262928Y-93323833D01*
X144323404Y-93354071D01*
X144353642Y-93384309D01*
X144383880Y-93444785D01*
X144383880Y-93686690D01*
X144051261Y-92749309D02*
X144051261Y-93051690D01*
X144353642Y-93081928D01*
X144323404Y-93051690D01*
X144293166Y-92991214D01*
X144293166Y-92840023D01*
X144323404Y-92779547D01*
X144353642Y-92749309D01*
X144414119Y-92719071D01*
X144565309Y-92719071D01*
X144625785Y-92749309D01*
X144656023Y-92779547D01*
X144686261Y-92840023D01*
X144686261Y-92991214D01*
X144656023Y-93051690D01*
X144625785Y-93081928D01*
X149385261Y-100562833D02*
X149082880Y-100774500D01*
X149385261Y-100925690D02*
X148750261Y-100925690D01*
X148750261Y-100683785D01*
X148780500Y-100623309D01*
X148810738Y-100593071D01*
X148871214Y-100562833D01*
X148961928Y-100562833D01*
X149022404Y-100593071D01*
X149052642Y-100623309D01*
X149082880Y-100683785D01*
X149082880Y-100925690D01*
X148961928Y-100018547D02*
X149385261Y-100018547D01*
X148720023Y-100169738D02*
X149173595Y-100320928D01*
X149173595Y-99927833D01*
X142134166Y-100744261D02*
X141922500Y-100441880D01*
X141771309Y-100744261D02*
X141771309Y-100109261D01*
X142013214Y-100109261D01*
X142073690Y-100139500D01*
X142103928Y-100169738D01*
X142134166Y-100230214D01*
X142134166Y-100320928D01*
X142103928Y-100381404D01*
X142073690Y-100411642D01*
X142013214Y-100441880D01*
X141771309Y-100441880D01*
X142345833Y-100109261D02*
X142738928Y-100109261D01*
X142527261Y-100351166D01*
X142617976Y-100351166D01*
X142678452Y-100381404D01*
X142708690Y-100411642D01*
X142738928Y-100472119D01*
X142738928Y-100623309D01*
X142708690Y-100683785D01*
X142678452Y-100714023D01*
X142617976Y-100744261D01*
X142436547Y-100744261D01*
X142376071Y-100714023D01*
X142345833Y-100683785D01*
X149246166Y-93632261D02*
X149034500Y-93329880D01*
X148883309Y-93632261D02*
X148883309Y-92997261D01*
X149125214Y-92997261D01*
X149185690Y-93027500D01*
X149215928Y-93057738D01*
X149246166Y-93118214D01*
X149246166Y-93208928D01*
X149215928Y-93269404D01*
X149185690Y-93299642D01*
X149125214Y-93329880D01*
X148883309Y-93329880D01*
X149488071Y-93057738D02*
X149518309Y-93027500D01*
X149578785Y-92997261D01*
X149729976Y-92997261D01*
X149790452Y-93027500D01*
X149820690Y-93057738D01*
X149850928Y-93118214D01*
X149850928Y-93178690D01*
X149820690Y-93269404D01*
X149457833Y-93632261D01*
X149850928Y-93632261D01*
X165066738Y-108264476D02*
X165036500Y-108324952D01*
X164976023Y-108385428D01*
X164885309Y-108476142D01*
X164855071Y-108536619D01*
X164855071Y-108597095D01*
X165006261Y-108566857D02*
X164976023Y-108627333D01*
X164915547Y-108687809D01*
X164794595Y-108718047D01*
X164582928Y-108718047D01*
X164461976Y-108687809D01*
X164401500Y-108627333D01*
X164371261Y-108566857D01*
X164371261Y-108445904D01*
X164401500Y-108385428D01*
X164461976Y-108324952D01*
X164582928Y-108294714D01*
X164794595Y-108294714D01*
X164915547Y-108324952D01*
X164976023Y-108385428D01*
X165006261Y-108445904D01*
X165006261Y-108566857D01*
X164582928Y-107750428D02*
X165006261Y-107750428D01*
X164341023Y-107901619D02*
X164794595Y-108052809D01*
X164794595Y-107659714D01*
X155387523Y-104614738D02*
X155327047Y-104584500D01*
X155266571Y-104524023D01*
X155175857Y-104433309D01*
X155115380Y-104403071D01*
X155054904Y-104403071D01*
X155085142Y-104554261D02*
X155024666Y-104524023D01*
X154964190Y-104463547D01*
X154933952Y-104342595D01*
X154933952Y-104130928D01*
X154964190Y-104009976D01*
X155024666Y-103949500D01*
X155085142Y-103919261D01*
X155206095Y-103919261D01*
X155266571Y-103949500D01*
X155327047Y-104009976D01*
X155357285Y-104130928D01*
X155357285Y-104342595D01*
X155327047Y-104463547D01*
X155266571Y-104524023D01*
X155206095Y-104554261D01*
X155085142Y-104554261D01*
X155568952Y-103919261D02*
X155962047Y-103919261D01*
X155750380Y-104161166D01*
X155841095Y-104161166D01*
X155901571Y-104191404D01*
X155931809Y-104221642D01*
X155962047Y-104282119D01*
X155962047Y-104433309D01*
X155931809Y-104493785D01*
X155901571Y-104524023D01*
X155841095Y-104554261D01*
X155659666Y-104554261D01*
X155599190Y-104524023D01*
X155568952Y-104493785D01*
X169484523Y-106773738D02*
X169424047Y-106743500D01*
X169363571Y-106683023D01*
X169272857Y-106592309D01*
X169212380Y-106562071D01*
X169151904Y-106562071D01*
X169182142Y-106713261D02*
X169121666Y-106683023D01*
X169061190Y-106622547D01*
X169030952Y-106501595D01*
X169030952Y-106289928D01*
X169061190Y-106168976D01*
X169121666Y-106108500D01*
X169182142Y-106078261D01*
X169303095Y-106078261D01*
X169363571Y-106108500D01*
X169424047Y-106168976D01*
X169454285Y-106289928D01*
X169454285Y-106501595D01*
X169424047Y-106622547D01*
X169363571Y-106683023D01*
X169303095Y-106713261D01*
X169182142Y-106713261D01*
X169696190Y-106138738D02*
X169726428Y-106108500D01*
X169786904Y-106078261D01*
X169938095Y-106078261D01*
X169998571Y-106108500D01*
X170028809Y-106138738D01*
X170059047Y-106199214D01*
X170059047Y-106259690D01*
X170028809Y-106350404D01*
X169665952Y-106713261D01*
X170059047Y-106713261D01*
X151704523Y-92589738D02*
X151644047Y-92559500D01*
X151583571Y-92499023D01*
X151492857Y-92408309D01*
X151432380Y-92378071D01*
X151371904Y-92378071D01*
X151402142Y-92529261D02*
X151341666Y-92499023D01*
X151281190Y-92438547D01*
X151250952Y-92317595D01*
X151250952Y-92105928D01*
X151281190Y-91984976D01*
X151341666Y-91924500D01*
X151402142Y-91894261D01*
X151523095Y-91894261D01*
X151583571Y-91924500D01*
X151644047Y-91984976D01*
X151674285Y-92105928D01*
X151674285Y-92317595D01*
X151644047Y-92438547D01*
X151583571Y-92499023D01*
X151523095Y-92529261D01*
X151402142Y-92529261D01*
X152279047Y-92529261D02*
X151916190Y-92529261D01*
X152097619Y-92529261D02*
X152097619Y-91894261D01*
X152037142Y-91984976D01*
X151976666Y-92045452D01*
X151916190Y-92075690D01*
X158402261Y-109168595D02*
X158402261Y-109470976D01*
X157767261Y-109470976D01*
X158069642Y-108956928D02*
X158069642Y-108745261D01*
X158402261Y-108654547D02*
X158402261Y-108956928D01*
X157767261Y-108956928D01*
X157767261Y-108654547D01*
X158402261Y-108382404D02*
X157767261Y-108382404D01*
X157767261Y-108231214D01*
X157797500Y-108140500D01*
X157857976Y-108080023D01*
X157918452Y-108049785D01*
X158039404Y-108019547D01*
X158130119Y-108019547D01*
X158251071Y-108049785D01*
X158311547Y-108080023D01*
X158372023Y-108140500D01*
X158402261Y-108231214D01*
X158402261Y-108382404D01*
X158402261Y-107414785D02*
X158402261Y-107777642D01*
X158402261Y-107596214D02*
X157767261Y-107596214D01*
X157857976Y-107656690D01*
X157918452Y-107717166D01*
X157948690Y-107777642D01*
X141342331Y-70932366D02*
X141795903Y-70932366D01*
X141886617Y-70962604D01*
X141947093Y-71023080D01*
X141977331Y-71113795D01*
X141977331Y-71174271D01*
X141977331Y-70297366D02*
X141977331Y-70660223D01*
X141977331Y-70478795D02*
X141342331Y-70478795D01*
X141433046Y-70539271D01*
X141493522Y-70599747D01*
X141523760Y-70660223D01*
X154150785Y-107499452D02*
X154181023Y-107529690D01*
X154211261Y-107620404D01*
X154211261Y-107680880D01*
X154181023Y-107771595D01*
X154120547Y-107832071D01*
X154060071Y-107862309D01*
X153939119Y-107892547D01*
X153848404Y-107892547D01*
X153727452Y-107862309D01*
X153666976Y-107832071D01*
X153606500Y-107771595D01*
X153576261Y-107680880D01*
X153576261Y-107620404D01*
X153606500Y-107529690D01*
X153636738Y-107499452D01*
X154211261Y-107227309D02*
X153576261Y-107227309D01*
X154211261Y-106864452D01*
X153576261Y-106864452D01*
X154211261Y-106229452D02*
X154211261Y-106592309D01*
X154211261Y-106410880D02*
X153576261Y-106410880D01*
X153666976Y-106471357D01*
X153727452Y-106531833D01*
X153757690Y-106592309D01*
X169898785Y-105458985D02*
X169868547Y-105489223D01*
X169777833Y-105519461D01*
X169717357Y-105519461D01*
X169626642Y-105489223D01*
X169566166Y-105428747D01*
X169535928Y-105368271D01*
X169505690Y-105247319D01*
X169505690Y-105156604D01*
X169535928Y-105035652D01*
X169566166Y-104975176D01*
X169626642Y-104914700D01*
X169717357Y-104884461D01*
X169777833Y-104884461D01*
X169868547Y-104914700D01*
X169898785Y-104944938D01*
X170503547Y-105519461D02*
X170140690Y-105519461D01*
X170322119Y-105519461D02*
X170322119Y-104884461D01*
X170261642Y-104975176D01*
X170201166Y-105035652D01*
X170140690Y-105065890D01*
X171078071Y-104884461D02*
X170775690Y-104884461D01*
X170745452Y-105186842D01*
X170775690Y-105156604D01*
X170836166Y-105126366D01*
X170987357Y-105126366D01*
X171047833Y-105156604D01*
X171078071Y-105186842D01*
X171108309Y-105247319D01*
X171108309Y-105398509D01*
X171078071Y-105458985D01*
X171047833Y-105489223D01*
X170987357Y-105519461D01*
X170836166Y-105519461D01*
X170775690Y-105489223D01*
X170745452Y-105458985D01*
X167612785Y-98071214D02*
X167643023Y-98101452D01*
X167673261Y-98192166D01*
X167673261Y-98252642D01*
X167643023Y-98343357D01*
X167582547Y-98403833D01*
X167522071Y-98434071D01*
X167401119Y-98464309D01*
X167310404Y-98464309D01*
X167189452Y-98434071D01*
X167128976Y-98403833D01*
X167068500Y-98343357D01*
X167038261Y-98252642D01*
X167038261Y-98192166D01*
X167068500Y-98101452D01*
X167098738Y-98071214D01*
X167673261Y-97466452D02*
X167673261Y-97829309D01*
X167673261Y-97647880D02*
X167038261Y-97647880D01*
X167128976Y-97708357D01*
X167189452Y-97768833D01*
X167219690Y-97829309D01*
X167249928Y-96922166D02*
X167673261Y-96922166D01*
X167008023Y-97073357D02*
X167461595Y-97224547D01*
X167461595Y-96831452D01*
X164056785Y-106453214D02*
X164087023Y-106483452D01*
X164117261Y-106574166D01*
X164117261Y-106634642D01*
X164087023Y-106725357D01*
X164026547Y-106785833D01*
X163966071Y-106816071D01*
X163845119Y-106846309D01*
X163754404Y-106846309D01*
X163633452Y-106816071D01*
X163572976Y-106785833D01*
X163512500Y-106725357D01*
X163482261Y-106634642D01*
X163482261Y-106574166D01*
X163512500Y-106483452D01*
X163542738Y-106453214D01*
X164117261Y-105848452D02*
X164117261Y-106211309D01*
X164117261Y-106029880D02*
X163482261Y-106029880D01*
X163572976Y-106090357D01*
X163633452Y-106150833D01*
X163663690Y-106211309D01*
X163482261Y-105636785D02*
X163482261Y-105243690D01*
X163724166Y-105455357D01*
X163724166Y-105364642D01*
X163754404Y-105304166D01*
X163784642Y-105273928D01*
X163845119Y-105243690D01*
X163996309Y-105243690D01*
X164056785Y-105273928D01*
X164087023Y-105304166D01*
X164117261Y-105364642D01*
X164117261Y-105546071D01*
X164087023Y-105606547D01*
X164056785Y-105636785D01*
X161995785Y-98198214D02*
X162026023Y-98228452D01*
X162056261Y-98319166D01*
X162056261Y-98379642D01*
X162026023Y-98470357D01*
X161965547Y-98530833D01*
X161905071Y-98561071D01*
X161784119Y-98591309D01*
X161693404Y-98591309D01*
X161572452Y-98561071D01*
X161511976Y-98530833D01*
X161451500Y-98470357D01*
X161421261Y-98379642D01*
X161421261Y-98319166D01*
X161451500Y-98228452D01*
X161481738Y-98198214D01*
X162056261Y-97593452D02*
X162056261Y-97956309D01*
X162056261Y-97774880D02*
X161421261Y-97774880D01*
X161511976Y-97835357D01*
X161572452Y-97895833D01*
X161602690Y-97956309D01*
X161481738Y-97351547D02*
X161451500Y-97321309D01*
X161421261Y-97260833D01*
X161421261Y-97109642D01*
X161451500Y-97049166D01*
X161481738Y-97018928D01*
X161542214Y-96988690D01*
X161602690Y-96988690D01*
X161693404Y-97018928D01*
X162056261Y-97381785D01*
X162056261Y-96988690D01*
X160213785Y-101070833D02*
X160244023Y-101101071D01*
X160274261Y-101191785D01*
X160274261Y-101252261D01*
X160244023Y-101342976D01*
X160183547Y-101403452D01*
X160123071Y-101433690D01*
X160002119Y-101463928D01*
X159911404Y-101463928D01*
X159790452Y-101433690D01*
X159729976Y-101403452D01*
X159669500Y-101342976D01*
X159639261Y-101252261D01*
X159639261Y-101191785D01*
X159669500Y-101101071D01*
X159699738Y-101070833D01*
X160274261Y-100768452D02*
X160274261Y-100647500D01*
X160244023Y-100587023D01*
X160213785Y-100556785D01*
X160123071Y-100496309D01*
X160002119Y-100466071D01*
X159760214Y-100466071D01*
X159699738Y-100496309D01*
X159669500Y-100526547D01*
X159639261Y-100587023D01*
X159639261Y-100707976D01*
X159669500Y-100768452D01*
X159699738Y-100798690D01*
X159760214Y-100828928D01*
X159911404Y-100828928D01*
X159971880Y-100798690D01*
X160002119Y-100768452D01*
X160032357Y-100707976D01*
X160032357Y-100587023D01*
X160002119Y-100526547D01*
X159971880Y-100496309D01*
X159911404Y-100466071D01*
X152675166Y-99667785D02*
X152644928Y-99698023D01*
X152554214Y-99728261D01*
X152493738Y-99728261D01*
X152403023Y-99698023D01*
X152342547Y-99637547D01*
X152312309Y-99577071D01*
X152282071Y-99456119D01*
X152282071Y-99365404D01*
X152312309Y-99244452D01*
X152342547Y-99183976D01*
X152403023Y-99123500D01*
X152493738Y-99093261D01*
X152554214Y-99093261D01*
X152644928Y-99123500D01*
X152675166Y-99153738D01*
X152886833Y-99093261D02*
X153310166Y-99093261D01*
X153038023Y-99728261D01*
X152929166Y-102334785D02*
X152898928Y-102365023D01*
X152808214Y-102395261D01*
X152747738Y-102395261D01*
X152657023Y-102365023D01*
X152596547Y-102304547D01*
X152566309Y-102244071D01*
X152536071Y-102123119D01*
X152536071Y-102032404D01*
X152566309Y-101911452D01*
X152596547Y-101850976D01*
X152657023Y-101790500D01*
X152747738Y-101760261D01*
X152808214Y-101760261D01*
X152898928Y-101790500D01*
X152929166Y-101820738D01*
X153473452Y-101760261D02*
X153352500Y-101760261D01*
X153292023Y-101790500D01*
X153261785Y-101820738D01*
X153201309Y-101911452D01*
X153171071Y-102032404D01*
X153171071Y-102274309D01*
X153201309Y-102334785D01*
X153231547Y-102365023D01*
X153292023Y-102395261D01*
X153412976Y-102395261D01*
X153473452Y-102365023D01*
X153503690Y-102334785D01*
X153533928Y-102274309D01*
X153533928Y-102123119D01*
X153503690Y-102062642D01*
X153473452Y-102032404D01*
X153412976Y-102002166D01*
X153292023Y-102002166D01*
X153231547Y-102032404D01*
X153201309Y-102062642D01*
X153171071Y-102123119D01*
X150770166Y-100683785D02*
X150739928Y-100714023D01*
X150649214Y-100744261D01*
X150588738Y-100744261D01*
X150498023Y-100714023D01*
X150437547Y-100653547D01*
X150407309Y-100593071D01*
X150377071Y-100472119D01*
X150377071Y-100381404D01*
X150407309Y-100260452D01*
X150437547Y-100199976D01*
X150498023Y-100139500D01*
X150588738Y-100109261D01*
X150649214Y-100109261D01*
X150739928Y-100139500D01*
X150770166Y-100169738D01*
X151344690Y-100109261D02*
X151042309Y-100109261D01*
X151012071Y-100411642D01*
X151042309Y-100381404D01*
X151102785Y-100351166D01*
X151253976Y-100351166D01*
X151314452Y-100381404D01*
X151344690Y-100411642D01*
X151374928Y-100472119D01*
X151374928Y-100623309D01*
X151344690Y-100683785D01*
X151314452Y-100714023D01*
X151253976Y-100744261D01*
X151102785Y-100744261D01*
X151042309Y-100714023D01*
X151012071Y-100683785D01*
X140991166Y-102207785D02*
X140960928Y-102238023D01*
X140870214Y-102268261D01*
X140809738Y-102268261D01*
X140719023Y-102238023D01*
X140658547Y-102177547D01*
X140628309Y-102117071D01*
X140598071Y-101996119D01*
X140598071Y-101905404D01*
X140628309Y-101784452D01*
X140658547Y-101723976D01*
X140719023Y-101663500D01*
X140809738Y-101633261D01*
X140870214Y-101633261D01*
X140960928Y-101663500D01*
X140991166Y-101693738D01*
X141535452Y-101844928D02*
X141535452Y-102268261D01*
X141384261Y-101603023D02*
X141233071Y-102056595D01*
X141626166Y-102056595D01*
%LPC*%
D15*
X147828000Y-99753000D03*
D16*
X126746000Y-82042000D03*
X126746000Y-84582000D03*
X126746000Y-87122000D03*
X126746000Y-89662000D03*
X126746000Y-79502000D03*
X126746000Y-76962000D03*
X126746000Y-74422000D03*
X129286000Y-89662000D03*
X131826000Y-89662000D03*
X134366000Y-89662000D03*
X136906000Y-89662000D03*
X139446000Y-89662000D03*
X141986000Y-89662000D03*
X144526000Y-89662000D03*
X147066000Y-89662000D03*
X149606000Y-89662000D03*
X152146000Y-89662000D03*
X154686000Y-89662000D03*
X157226000Y-89662000D03*
X159766000Y-89662000D03*
X157226000Y-87122000D03*
X152146000Y-87122000D03*
X149606000Y-87122000D03*
X147066000Y-87122000D03*
X129286000Y-74422000D03*
X131826000Y-74422000D03*
X134366000Y-74422000D03*
X136906000Y-74422000D03*
X139446000Y-74422000D03*
X141986000Y-74422000D03*
X144526000Y-74422000D03*
X147066000Y-74422000D03*
X149606000Y-74422000D03*
X152146000Y-74422000D03*
X154686000Y-74422000D03*
X157226000Y-74422000D03*
D17*
X159766000Y-74422000D03*
D16*
X159588200Y-81737200D03*
X159588200Y-79756000D03*
G36*
G01*
X166449200Y-103369000D02*
X165604800Y-103369000D01*
G75*
G02*
X165597000Y-103361200I0J7800D01*
G01*
X165597000Y-103116800D01*
G75*
G02*
X165604800Y-103109000I7800J0D01*
G01*
X166449200Y-103109000D01*
G75*
G02*
X166457000Y-103116800I0J-7800D01*
G01*
X166457000Y-103361200D01*
G75*
G02*
X166449200Y-103369000I-7800J0D01*
G01*
G37*
G36*
G01*
X166449200Y-102869000D02*
X165604800Y-102869000D01*
G75*
G02*
X165597000Y-102861200I0J7800D01*
G01*
X165597000Y-102616800D01*
G75*
G02*
X165604800Y-102609000I7800J0D01*
G01*
X166449200Y-102609000D01*
G75*
G02*
X166457000Y-102616800I0J-7800D01*
G01*
X166457000Y-102861200D01*
G75*
G02*
X166449200Y-102869000I-7800J0D01*
G01*
G37*
G36*
G01*
X166449200Y-102369000D02*
X165604800Y-102369000D01*
G75*
G02*
X165597000Y-102361200I0J7800D01*
G01*
X165597000Y-102116800D01*
G75*
G02*
X165604800Y-102109000I7800J0D01*
G01*
X166449200Y-102109000D01*
G75*
G02*
X166457000Y-102116800I0J-7800D01*
G01*
X166457000Y-102361200D01*
G75*
G02*
X166449200Y-102369000I-7800J0D01*
G01*
G37*
G36*
G01*
X166449200Y-101869000D02*
X165604800Y-101869000D01*
G75*
G02*
X165597000Y-101861200I0J7800D01*
G01*
X165597000Y-101616800D01*
G75*
G02*
X165604800Y-101609000I7800J0D01*
G01*
X166449200Y-101609000D01*
G75*
G02*
X166457000Y-101616800I0J-7800D01*
G01*
X166457000Y-101861200D01*
G75*
G02*
X166449200Y-101869000I-7800J0D01*
G01*
G37*
G36*
G01*
X163579200Y-101869000D02*
X162734800Y-101869000D01*
G75*
G02*
X162727000Y-101861200I0J7800D01*
G01*
X162727000Y-101616800D01*
G75*
G02*
X162734800Y-101609000I7800J0D01*
G01*
X163579200Y-101609000D01*
G75*
G02*
X163587000Y-101616800I0J-7800D01*
G01*
X163587000Y-101861200D01*
G75*
G02*
X163579200Y-101869000I-7800J0D01*
G01*
G37*
G36*
G01*
X163579200Y-102369000D02*
X162734800Y-102369000D01*
G75*
G02*
X162727000Y-102361200I0J7800D01*
G01*
X162727000Y-102116800D01*
G75*
G02*
X162734800Y-102109000I7800J0D01*
G01*
X163579200Y-102109000D01*
G75*
G02*
X163587000Y-102116800I0J-7800D01*
G01*
X163587000Y-102361200D01*
G75*
G02*
X163579200Y-102369000I-7800J0D01*
G01*
G37*
G36*
G01*
X163579200Y-102869000D02*
X162734800Y-102869000D01*
G75*
G02*
X162727000Y-102861200I0J7800D01*
G01*
X162727000Y-102616800D01*
G75*
G02*
X162734800Y-102609000I7800J0D01*
G01*
X163579200Y-102609000D01*
G75*
G02*
X163587000Y-102616800I0J-7800D01*
G01*
X163587000Y-102861200D01*
G75*
G02*
X163579200Y-102869000I-7800J0D01*
G01*
G37*
G36*
G01*
X163579200Y-103369000D02*
X162734800Y-103369000D01*
G75*
G02*
X162727000Y-103361200I0J7800D01*
G01*
X162727000Y-103116800D01*
G75*
G02*
X162734800Y-103109000I7800J0D01*
G01*
X163579200Y-103109000D01*
G75*
G02*
X163587000Y-103116800I0J-7800D01*
G01*
X163587000Y-103361200D01*
G75*
G02*
X163579200Y-103369000I-7800J0D01*
G01*
G37*
G36*
G01*
X163964200Y-104354000D02*
X163719800Y-104354000D01*
G75*
G02*
X163712000Y-104346200I0J7800D01*
G01*
X163712000Y-103501800D01*
G75*
G02*
X163719800Y-103494000I7800J0D01*
G01*
X163964200Y-103494000D01*
G75*
G02*
X163972000Y-103501800I0J-7800D01*
G01*
X163972000Y-104346200D01*
G75*
G02*
X163964200Y-104354000I-7800J0D01*
G01*
G37*
G36*
G01*
X164464200Y-104354000D02*
X164219800Y-104354000D01*
G75*
G02*
X164212000Y-104346200I0J7800D01*
G01*
X164212000Y-103501800D01*
G75*
G02*
X164219800Y-103494000I7800J0D01*
G01*
X164464200Y-103494000D01*
G75*
G02*
X164472000Y-103501800I0J-7800D01*
G01*
X164472000Y-104346200D01*
G75*
G02*
X164464200Y-104354000I-7800J0D01*
G01*
G37*
G36*
G01*
X164964200Y-104354000D02*
X164719800Y-104354000D01*
G75*
G02*
X164712000Y-104346200I0J7800D01*
G01*
X164712000Y-103501800D01*
G75*
G02*
X164719800Y-103494000I7800J0D01*
G01*
X164964200Y-103494000D01*
G75*
G02*
X164972000Y-103501800I0J-7800D01*
G01*
X164972000Y-104346200D01*
G75*
G02*
X164964200Y-104354000I-7800J0D01*
G01*
G37*
G36*
G01*
X165464200Y-104354000D02*
X165219800Y-104354000D01*
G75*
G02*
X165212000Y-104346200I0J7800D01*
G01*
X165212000Y-103501800D01*
G75*
G02*
X165219800Y-103494000I7800J0D01*
G01*
X165464200Y-103494000D01*
G75*
G02*
X165472000Y-103501800I0J-7800D01*
G01*
X165472000Y-104346200D01*
G75*
G02*
X165464200Y-104354000I-7800J0D01*
G01*
G37*
G36*
G01*
X165464200Y-101484000D02*
X165219800Y-101484000D01*
G75*
G02*
X165212000Y-101476200I0J7800D01*
G01*
X165212000Y-100631800D01*
G75*
G02*
X165219800Y-100624000I7800J0D01*
G01*
X165464200Y-100624000D01*
G75*
G02*
X165472000Y-100631800I0J-7800D01*
G01*
X165472000Y-101476200D01*
G75*
G02*
X165464200Y-101484000I-7800J0D01*
G01*
G37*
G36*
G01*
X164964200Y-101484000D02*
X164719800Y-101484000D01*
G75*
G02*
X164712000Y-101476200I0J7800D01*
G01*
X164712000Y-100631800D01*
G75*
G02*
X164719800Y-100624000I7800J0D01*
G01*
X164964200Y-100624000D01*
G75*
G02*
X164972000Y-100631800I0J-7800D01*
G01*
X164972000Y-101476200D01*
G75*
G02*
X164964200Y-101484000I-7800J0D01*
G01*
G37*
G36*
G01*
X164464200Y-101484000D02*
X164219800Y-101484000D01*
G75*
G02*
X164212000Y-101476200I0J7800D01*
G01*
X164212000Y-100631800D01*
G75*
G02*
X164219800Y-100624000I7800J0D01*
G01*
X164464200Y-100624000D01*
G75*
G02*
X164472000Y-100631800I0J-7800D01*
G01*
X164472000Y-101476200D01*
G75*
G02*
X164464200Y-101484000I-7800J0D01*
G01*
G37*
G36*
G01*
X163964200Y-101484000D02*
X163719800Y-101484000D01*
G75*
G02*
X163712000Y-101476200I0J7800D01*
G01*
X163712000Y-100631800D01*
G75*
G02*
X163719800Y-100624000I7800J0D01*
G01*
X163964200Y-100624000D01*
G75*
G02*
X163972000Y-100631800I0J-7800D01*
G01*
X163972000Y-101476200D01*
G75*
G02*
X163964200Y-101484000I-7800J0D01*
G01*
G37*
D18*
X164592000Y-102489000D03*
D19*
X127127000Y-93345000D03*
X127127000Y-95834200D03*
X133019800Y-93345000D03*
X133019800Y-95834200D03*
D20*
X127876300Y-107264200D03*
X132270500Y-107264200D03*
D21*
X164120000Y-84350000D03*
X164120000Y-93450000D03*
X168620000Y-93450000D03*
X168620000Y-84350000D03*
X164120000Y-80750000D03*
X164120000Y-71650000D03*
X168620000Y-71650000D03*
X168620000Y-80750000D03*
G36*
G01*
X159879000Y-108770000D02*
X159879000Y-108400000D01*
G75*
G02*
X160014000Y-108265000I135000J0D01*
G01*
X160284000Y-108265000D01*
G75*
G02*
X160419000Y-108400000I0J-135000D01*
G01*
X160419000Y-108770000D01*
G75*
G02*
X160284000Y-108905000I-135000J0D01*
G01*
X160014000Y-108905000D01*
G75*
G02*
X159879000Y-108770000I0J135000D01*
G01*
G37*
G36*
G01*
X158859000Y-108770000D02*
X158859000Y-108400000D01*
G75*
G02*
X158994000Y-108265000I135000J0D01*
G01*
X159264000Y-108265000D01*
G75*
G02*
X159399000Y-108400000I0J-135000D01*
G01*
X159399000Y-108770000D01*
G75*
G02*
X159264000Y-108905000I-135000J0D01*
G01*
X158994000Y-108905000D01*
G75*
G02*
X158859000Y-108770000I0J135000D01*
G01*
G37*
G36*
G01*
X157875000Y-106368000D02*
X157875000Y-106738000D01*
G75*
G02*
X157740000Y-106873000I-135000J0D01*
G01*
X157470000Y-106873000D01*
G75*
G02*
X157335000Y-106738000I0J135000D01*
G01*
X157335000Y-106368000D01*
G75*
G02*
X157470000Y-106233000I135000J0D01*
G01*
X157740000Y-106233000D01*
G75*
G02*
X157875000Y-106368000I0J-135000D01*
G01*
G37*
G36*
G01*
X158895000Y-106368000D02*
X158895000Y-106738000D01*
G75*
G02*
X158760000Y-106873000I-135000J0D01*
G01*
X158490000Y-106873000D01*
G75*
G02*
X158355000Y-106738000I0J135000D01*
G01*
X158355000Y-106368000D01*
G75*
G02*
X158490000Y-106233000I135000J0D01*
G01*
X158760000Y-106233000D01*
G75*
G02*
X158895000Y-106368000I0J-135000D01*
G01*
G37*
G36*
G01*
X158510000Y-101542000D02*
X158510000Y-101912000D01*
G75*
G02*
X158375000Y-102047000I-135000J0D01*
G01*
X158105000Y-102047000D01*
G75*
G02*
X157970000Y-101912000I0J135000D01*
G01*
X157970000Y-101542000D01*
G75*
G02*
X158105000Y-101407000I135000J0D01*
G01*
X158375000Y-101407000D01*
G75*
G02*
X158510000Y-101542000I0J-135000D01*
G01*
G37*
G36*
G01*
X159530000Y-101542000D02*
X159530000Y-101912000D01*
G75*
G02*
X159395000Y-102047000I-135000J0D01*
G01*
X159125000Y-102047000D01*
G75*
G02*
X158990000Y-101912000I0J135000D01*
G01*
X158990000Y-101542000D01*
G75*
G02*
X159125000Y-101407000I135000J0D01*
G01*
X159395000Y-101407000D01*
G75*
G02*
X159530000Y-101542000I0J-135000D01*
G01*
G37*
G36*
G01*
X169857000Y-107710000D02*
X169487000Y-107710000D01*
G75*
G02*
X169352000Y-107575000I0J135000D01*
G01*
X169352000Y-107305000D01*
G75*
G02*
X169487000Y-107170000I135000J0D01*
G01*
X169857000Y-107170000D01*
G75*
G02*
X169992000Y-107305000I0J-135000D01*
G01*
X169992000Y-107575000D01*
G75*
G02*
X169857000Y-107710000I-135000J0D01*
G01*
G37*
G36*
G01*
X169857000Y-108730000D02*
X169487000Y-108730000D01*
G75*
G02*
X169352000Y-108595000I0J135000D01*
G01*
X169352000Y-108325000D01*
G75*
G02*
X169487000Y-108190000I135000J0D01*
G01*
X169857000Y-108190000D01*
G75*
G02*
X169992000Y-108325000I0J-135000D01*
G01*
X169992000Y-108595000D01*
G75*
G02*
X169857000Y-108730000I-135000J0D01*
G01*
G37*
G36*
G01*
X161530000Y-104452000D02*
X161530000Y-104082000D01*
G75*
G02*
X161665000Y-103947000I135000J0D01*
G01*
X161935000Y-103947000D01*
G75*
G02*
X162070000Y-104082000I0J-135000D01*
G01*
X162070000Y-104452000D01*
G75*
G02*
X161935000Y-104587000I-135000J0D01*
G01*
X161665000Y-104587000D01*
G75*
G02*
X161530000Y-104452000I0J135000D01*
G01*
G37*
G36*
G01*
X160510000Y-104452000D02*
X160510000Y-104082000D01*
G75*
G02*
X160645000Y-103947000I135000J0D01*
G01*
X160915000Y-103947000D01*
G75*
G02*
X161050000Y-104082000I0J-135000D01*
G01*
X161050000Y-104452000D01*
G75*
G02*
X160915000Y-104587000I-135000J0D01*
G01*
X160645000Y-104587000D01*
G75*
G02*
X160510000Y-104452000I0J135000D01*
G01*
G37*
G36*
G01*
X161050000Y-102939000D02*
X161050000Y-103309000D01*
G75*
G02*
X160915000Y-103444000I-135000J0D01*
G01*
X160645000Y-103444000D01*
G75*
G02*
X160510000Y-103309000I0J135000D01*
G01*
X160510000Y-102939000D01*
G75*
G02*
X160645000Y-102804000I135000J0D01*
G01*
X160915000Y-102804000D01*
G75*
G02*
X161050000Y-102939000I0J-135000D01*
G01*
G37*
G36*
G01*
X162070000Y-102939000D02*
X162070000Y-103309000D01*
G75*
G02*
X161935000Y-103444000I-135000J0D01*
G01*
X161665000Y-103444000D01*
G75*
G02*
X161530000Y-103309000I0J135000D01*
G01*
X161530000Y-102939000D01*
G75*
G02*
X161665000Y-102804000I135000J0D01*
G01*
X161935000Y-102804000D01*
G75*
G02*
X162070000Y-102939000I0J-135000D01*
G01*
G37*
G36*
G01*
X145357000Y-95109000D02*
X145727000Y-95109000D01*
G75*
G02*
X145862000Y-95244000I0J-135000D01*
G01*
X145862000Y-95514000D01*
G75*
G02*
X145727000Y-95649000I-135000J0D01*
G01*
X145357000Y-95649000D01*
G75*
G02*
X145222000Y-95514000I0J135000D01*
G01*
X145222000Y-95244000D01*
G75*
G02*
X145357000Y-95109000I135000J0D01*
G01*
G37*
G36*
G01*
X145357000Y-94089000D02*
X145727000Y-94089000D01*
G75*
G02*
X145862000Y-94224000I0J-135000D01*
G01*
X145862000Y-94494000D01*
G75*
G02*
X145727000Y-94629000I-135000J0D01*
G01*
X145357000Y-94629000D01*
G75*
G02*
X145222000Y-94494000I0J135000D01*
G01*
X145222000Y-94224000D01*
G75*
G02*
X145357000Y-94089000I135000J0D01*
G01*
G37*
G36*
G01*
X144214000Y-95109000D02*
X144584000Y-95109000D01*
G75*
G02*
X144719000Y-95244000I0J-135000D01*
G01*
X144719000Y-95514000D01*
G75*
G02*
X144584000Y-95649000I-135000J0D01*
G01*
X144214000Y-95649000D01*
G75*
G02*
X144079000Y-95514000I0J135000D01*
G01*
X144079000Y-95244000D01*
G75*
G02*
X144214000Y-95109000I135000J0D01*
G01*
G37*
G36*
G01*
X144214000Y-94089000D02*
X144584000Y-94089000D01*
G75*
G02*
X144719000Y-94224000I0J-135000D01*
G01*
X144719000Y-94494000D01*
G75*
G02*
X144584000Y-94629000I-135000J0D01*
G01*
X144214000Y-94629000D01*
G75*
G02*
X144079000Y-94494000I0J135000D01*
G01*
X144079000Y-94224000D01*
G75*
G02*
X144214000Y-94089000I135000J0D01*
G01*
G37*
G36*
G01*
X148278000Y-102348000D02*
X148648000Y-102348000D01*
G75*
G02*
X148783000Y-102483000I0J-135000D01*
G01*
X148783000Y-102753000D01*
G75*
G02*
X148648000Y-102888000I-135000J0D01*
G01*
X148278000Y-102888000D01*
G75*
G02*
X148143000Y-102753000I0J135000D01*
G01*
X148143000Y-102483000D01*
G75*
G02*
X148278000Y-102348000I135000J0D01*
G01*
G37*
G36*
G01*
X148278000Y-101328000D02*
X148648000Y-101328000D01*
G75*
G02*
X148783000Y-101463000I0J-135000D01*
G01*
X148783000Y-101733000D01*
G75*
G02*
X148648000Y-101868000I-135000J0D01*
G01*
X148278000Y-101868000D01*
G75*
G02*
X148143000Y-101733000I0J135000D01*
G01*
X148143000Y-101463000D01*
G75*
G02*
X148278000Y-101328000I135000J0D01*
G01*
G37*
G36*
G01*
X144131000Y-100642000D02*
X144131000Y-100272000D01*
G75*
G02*
X144266000Y-100137000I135000J0D01*
G01*
X144536000Y-100137000D01*
G75*
G02*
X144671000Y-100272000I0J-135000D01*
G01*
X144671000Y-100642000D01*
G75*
G02*
X144536000Y-100777000I-135000J0D01*
G01*
X144266000Y-100777000D01*
G75*
G02*
X144131000Y-100642000I0J135000D01*
G01*
G37*
G36*
G01*
X143111000Y-100642000D02*
X143111000Y-100272000D01*
G75*
G02*
X143246000Y-100137000I135000J0D01*
G01*
X143516000Y-100137000D01*
G75*
G02*
X143651000Y-100272000I0J-135000D01*
G01*
X143651000Y-100642000D01*
G75*
G02*
X143516000Y-100777000I-135000J0D01*
G01*
X143246000Y-100777000D01*
G75*
G02*
X143111000Y-100642000I0J135000D01*
G01*
G37*
G36*
G01*
X149537000Y-94629000D02*
X149167000Y-94629000D01*
G75*
G02*
X149032000Y-94494000I0J135000D01*
G01*
X149032000Y-94224000D01*
G75*
G02*
X149167000Y-94089000I135000J0D01*
G01*
X149537000Y-94089000D01*
G75*
G02*
X149672000Y-94224000I0J-135000D01*
G01*
X149672000Y-94494000D01*
G75*
G02*
X149537000Y-94629000I-135000J0D01*
G01*
G37*
G36*
G01*
X149537000Y-95649000D02*
X149167000Y-95649000D01*
G75*
G02*
X149032000Y-95514000I0J135000D01*
G01*
X149032000Y-95244000D01*
G75*
G02*
X149167000Y-95109000I135000J0D01*
G01*
X149537000Y-95109000D01*
G75*
G02*
X149672000Y-95244000I0J-135000D01*
G01*
X149672000Y-95514000D01*
G75*
G02*
X149537000Y-95649000I-135000J0D01*
G01*
G37*
D22*
X161433000Y-108458000D03*
X163433000Y-107808000D03*
X163433000Y-109108000D03*
D23*
X157607000Y-105140000D03*
X156957000Y-103140000D03*
X158257000Y-103140000D03*
D24*
X167005000Y-106950000D03*
X167955000Y-108950000D03*
X166055000Y-108950000D03*
D25*
X152765000Y-94742000D03*
X150765000Y-95692000D03*
X150765000Y-93792000D03*
D26*
X156681000Y-108033000D03*
X156681000Y-108883000D03*
X155231000Y-108033000D03*
X155231000Y-108883000D03*
D27*
X151640070Y-70720700D03*
X149100070Y-70720700D03*
X146560070Y-70720700D03*
D28*
X144020070Y-70720700D03*
D29*
X149702000Y-105156000D03*
X143922000Y-105156000D03*
D30*
X151922000Y-108586000D03*
X141702000Y-108586000D03*
X151922000Y-104656000D03*
X141702000Y-104656000D03*
D31*
X147062000Y-104081000D03*
X146562000Y-104081000D03*
X147562000Y-104081000D03*
X146062000Y-104081000D03*
X148062000Y-104081000D03*
X145562000Y-104081000D03*
X148562000Y-104081000D03*
X145062000Y-104081000D03*
D32*
X150012000Y-104081000D03*
X149212000Y-104081000D03*
X144412000Y-104081000D03*
X143612000Y-104081000D03*
G36*
G01*
X167963000Y-105580200D02*
X167963000Y-104630200D01*
G75*
G02*
X168213000Y-104380200I250000J0D01*
G01*
X168713000Y-104380200D01*
G75*
G02*
X168963000Y-104630200I0J-250000D01*
G01*
X168963000Y-105580200D01*
G75*
G02*
X168713000Y-105830200I-250000J0D01*
G01*
X168213000Y-105830200D01*
G75*
G02*
X167963000Y-105580200I0J250000D01*
G01*
G37*
G36*
G01*
X166063000Y-105580200D02*
X166063000Y-104630200D01*
G75*
G02*
X166313000Y-104380200I250000J0D01*
G01*
X166813000Y-104380200D01*
G75*
G02*
X167063000Y-104630200I0J-250000D01*
G01*
X167063000Y-105580200D01*
G75*
G02*
X166813000Y-105830200I-250000J0D01*
G01*
X166313000Y-105830200D01*
G75*
G02*
X166063000Y-105580200I0J250000D01*
G01*
G37*
G36*
G01*
X166210000Y-97340000D02*
X165260000Y-97340000D01*
G75*
G02*
X165010000Y-97090000I0J250000D01*
G01*
X165010000Y-96590000D01*
G75*
G02*
X165260000Y-96340000I250000J0D01*
G01*
X166210000Y-96340000D01*
G75*
G02*
X166460000Y-96590000I0J-250000D01*
G01*
X166460000Y-97090000D01*
G75*
G02*
X166210000Y-97340000I-250000J0D01*
G01*
G37*
G36*
G01*
X166210000Y-99240000D02*
X165260000Y-99240000D01*
G75*
G02*
X165010000Y-98990000I0J250000D01*
G01*
X165010000Y-98490000D01*
G75*
G02*
X165260000Y-98240000I250000J0D01*
G01*
X166210000Y-98240000D01*
G75*
G02*
X166460000Y-98490000I0J-250000D01*
G01*
X166460000Y-98990000D01*
G75*
G02*
X166210000Y-99240000I-250000J0D01*
G01*
G37*
G36*
G01*
X161094000Y-105443000D02*
X161094000Y-106393000D01*
G75*
G02*
X160844000Y-106643000I-250000J0D01*
G01*
X160344000Y-106643000D01*
G75*
G02*
X160094000Y-106393000I0J250000D01*
G01*
X160094000Y-105443000D01*
G75*
G02*
X160344000Y-105193000I250000J0D01*
G01*
X160844000Y-105193000D01*
G75*
G02*
X161094000Y-105443000I0J-250000D01*
G01*
G37*
G36*
G01*
X162994000Y-105443000D02*
X162994000Y-106393000D01*
G75*
G02*
X162744000Y-106643000I-250000J0D01*
G01*
X162244000Y-106643000D01*
G75*
G02*
X161994000Y-106393000I0J250000D01*
G01*
X161994000Y-105443000D01*
G75*
G02*
X162244000Y-105193000I250000J0D01*
G01*
X162744000Y-105193000D01*
G75*
G02*
X162994000Y-105443000I0J-250000D01*
G01*
G37*
G36*
G01*
X163924000Y-97340000D02*
X162974000Y-97340000D01*
G75*
G02*
X162724000Y-97090000I0J250000D01*
G01*
X162724000Y-96590000D01*
G75*
G02*
X162974000Y-96340000I250000J0D01*
G01*
X163924000Y-96340000D01*
G75*
G02*
X164174000Y-96590000I0J-250000D01*
G01*
X164174000Y-97090000D01*
G75*
G02*
X163924000Y-97340000I-250000J0D01*
G01*
G37*
G36*
G01*
X163924000Y-99240000D02*
X162974000Y-99240000D01*
G75*
G02*
X162724000Y-98990000I0J250000D01*
G01*
X162724000Y-98490000D01*
G75*
G02*
X162974000Y-98240000I250000J0D01*
G01*
X163924000Y-98240000D01*
G75*
G02*
X164174000Y-98490000I0J-250000D01*
G01*
X164174000Y-98990000D01*
G75*
G02*
X163924000Y-99240000I-250000J0D01*
G01*
G37*
G36*
G01*
X161667000Y-100640000D02*
X161167000Y-100640000D01*
G75*
G02*
X160942000Y-100415000I0J225000D01*
G01*
X160942000Y-99965000D01*
G75*
G02*
X161167000Y-99740000I225000J0D01*
G01*
X161667000Y-99740000D01*
G75*
G02*
X161892000Y-99965000I0J-225000D01*
G01*
X161892000Y-100415000D01*
G75*
G02*
X161667000Y-100640000I-225000J0D01*
G01*
G37*
G36*
G01*
X161667000Y-102190000D02*
X161167000Y-102190000D01*
G75*
G02*
X160942000Y-101965000I0J225000D01*
G01*
X160942000Y-101515000D01*
G75*
G02*
X161167000Y-101290000I225000J0D01*
G01*
X161667000Y-101290000D01*
G75*
G02*
X161892000Y-101515000I0J-225000D01*
G01*
X161892000Y-101965000D01*
G75*
G02*
X161667000Y-102190000I-225000J0D01*
G01*
G37*
G36*
G01*
X152215000Y-98265000D02*
X152215000Y-97315000D01*
G75*
G02*
X152465000Y-97065000I250000J0D01*
G01*
X152965000Y-97065000D01*
G75*
G02*
X153215000Y-97315000I0J-250000D01*
G01*
X153215000Y-98265000D01*
G75*
G02*
X152965000Y-98515000I-250000J0D01*
G01*
X152465000Y-98515000D01*
G75*
G02*
X152215000Y-98265000I0J250000D01*
G01*
G37*
G36*
G01*
X150315000Y-98265000D02*
X150315000Y-97315000D01*
G75*
G02*
X150565000Y-97065000I250000J0D01*
G01*
X151065000Y-97065000D01*
G75*
G02*
X151315000Y-97315000I0J-250000D01*
G01*
X151315000Y-98265000D01*
G75*
G02*
X151065000Y-98515000I-250000J0D01*
G01*
X150565000Y-98515000D01*
G75*
G02*
X150315000Y-98265000I0J250000D01*
G01*
G37*
G36*
G01*
X151074000Y-102358000D02*
X151074000Y-101858000D01*
G75*
G02*
X151299000Y-101633000I225000J0D01*
G01*
X151749000Y-101633000D01*
G75*
G02*
X151974000Y-101858000I0J-225000D01*
G01*
X151974000Y-102358000D01*
G75*
G02*
X151749000Y-102583000I-225000J0D01*
G01*
X151299000Y-102583000D01*
G75*
G02*
X151074000Y-102358000I0J225000D01*
G01*
G37*
G36*
G01*
X149524000Y-102358000D02*
X149524000Y-101858000D01*
G75*
G02*
X149749000Y-101633000I225000J0D01*
G01*
X150199000Y-101633000D01*
G75*
G02*
X150424000Y-101858000I0J-225000D01*
G01*
X150424000Y-102358000D01*
G75*
G02*
X150199000Y-102583000I-225000J0D01*
G01*
X149749000Y-102583000D01*
G75*
G02*
X149524000Y-102358000I0J225000D01*
G01*
G37*
G36*
G01*
X151203000Y-99611000D02*
X151203000Y-99271000D01*
G75*
G02*
X151343000Y-99131000I140000J0D01*
G01*
X151623000Y-99131000D01*
G75*
G02*
X151763000Y-99271000I0J-140000D01*
G01*
X151763000Y-99611000D01*
G75*
G02*
X151623000Y-99751000I-140000J0D01*
G01*
X151343000Y-99751000D01*
G75*
G02*
X151203000Y-99611000I0J140000D01*
G01*
G37*
G36*
G01*
X150243000Y-99611000D02*
X150243000Y-99271000D01*
G75*
G02*
X150383000Y-99131000I140000J0D01*
G01*
X150663000Y-99131000D01*
G75*
G02*
X150803000Y-99271000I0J-140000D01*
G01*
X150803000Y-99611000D01*
G75*
G02*
X150663000Y-99751000I-140000J0D01*
G01*
X150383000Y-99751000D01*
G75*
G02*
X150243000Y-99611000I0J140000D01*
G01*
G37*
G36*
G01*
X143058000Y-101604000D02*
X143058000Y-102104000D01*
G75*
G02*
X142833000Y-102329000I-225000J0D01*
G01*
X142383000Y-102329000D01*
G75*
G02*
X142158000Y-102104000I0J225000D01*
G01*
X142158000Y-101604000D01*
G75*
G02*
X142383000Y-101379000I225000J0D01*
G01*
X142833000Y-101379000D01*
G75*
G02*
X143058000Y-101604000I0J-225000D01*
G01*
G37*
G36*
G01*
X144608000Y-101604000D02*
X144608000Y-102104000D01*
G75*
G02*
X144383000Y-102329000I-225000J0D01*
G01*
X143933000Y-102329000D01*
G75*
G02*
X143708000Y-102104000I0J225000D01*
G01*
X143708000Y-101604000D01*
G75*
G02*
X143933000Y-101379000I225000J0D01*
G01*
X144383000Y-101379000D01*
G75*
G02*
X144608000Y-101604000I0J-225000D01*
G01*
G37*
M02*
