%TF.GenerationSoftware,KiCad,Pcbnew,(5.1.10)-1*%
%TF.CreationDate,2021-12-08T00:23:12-08:00*%
%TF.ProjectId,Climbing_Main_Rev_A,436c696d-6269-46e6-975f-4d61696e5f52,rev?*%
%TF.SameCoordinates,Original*%
%TF.FileFunction,Paste,Bot*%
%TF.FilePolarity,Positive*%
%FSLAX46Y46*%
G04 Gerber Fmt 4.6, Leading zero omitted, Abs format (unit mm)*
G04 Created by KiCad (PCBNEW (5.1.10)-1) date 2021-12-08 00:23:12*
%MOMM*%
%LPD*%
G01*
G04 APERTURE LIST*
%ADD10R,0.127000X0.508000*%
%ADD11R,0.939800X0.304800*%
%ADD12R,0.800000X0.900000*%
%ADD13R,2.100000X3.000000*%
%ADD14R,0.800000X1.600000*%
%ADD15R,1.050000X1.000000*%
%ADD16R,2.200000X1.050000*%
G04 APERTURE END LIST*
G36*
G01*
X140828000Y-106703000D02*
X140828000Y-107203000D01*
G75*
G02*
X140578000Y-107453000I-250000J0D01*
G01*
X139078000Y-107453000D01*
G75*
G02*
X138828000Y-107203000I0J250000D01*
G01*
X138828000Y-106703000D01*
G75*
G02*
X139078000Y-106453000I250000J0D01*
G01*
X140578000Y-106453000D01*
G75*
G02*
X140828000Y-106703000I0J-250000D01*
G01*
G37*
G36*
G01*
X140828000Y-105203000D02*
X140828000Y-105703000D01*
G75*
G02*
X140578000Y-105953000I-250000J0D01*
G01*
X139078000Y-105953000D01*
G75*
G02*
X138828000Y-105703000I0J250000D01*
G01*
X138828000Y-105203000D01*
G75*
G02*
X139078000Y-104953000I250000J0D01*
G01*
X140578000Y-104953000D01*
G75*
G02*
X140828000Y-105203000I0J-250000D01*
G01*
G37*
G36*
G01*
X140828000Y-103703000D02*
X140828000Y-104203000D01*
G75*
G02*
X140578000Y-104453000I-250000J0D01*
G01*
X139078000Y-104453000D01*
G75*
G02*
X138828000Y-104203000I0J250000D01*
G01*
X138828000Y-103703000D01*
G75*
G02*
X139078000Y-103453000I250000J0D01*
G01*
X140578000Y-103453000D01*
G75*
G02*
X140828000Y-103703000I0J-250000D01*
G01*
G37*
G36*
G01*
X140828000Y-102203000D02*
X140828000Y-102703000D01*
G75*
G02*
X140578000Y-102953000I-250000J0D01*
G01*
X139078000Y-102953000D01*
G75*
G02*
X138828000Y-102703000I0J250000D01*
G01*
X138828000Y-102203000D01*
G75*
G02*
X139078000Y-101953000I250000J0D01*
G01*
X140578000Y-101953000D01*
G75*
G02*
X140828000Y-102203000I0J-250000D01*
G01*
G37*
G36*
G01*
X140828000Y-100703000D02*
X140828000Y-101203000D01*
G75*
G02*
X140578000Y-101453000I-250000J0D01*
G01*
X139078000Y-101453000D01*
G75*
G02*
X138828000Y-101203000I0J250000D01*
G01*
X138828000Y-100703000D01*
G75*
G02*
X139078000Y-100453000I250000J0D01*
G01*
X140578000Y-100453000D01*
G75*
G02*
X140828000Y-100703000I0J-250000D01*
G01*
G37*
G36*
G01*
X140828000Y-99203000D02*
X140828000Y-99703000D01*
G75*
G02*
X140578000Y-99953000I-250000J0D01*
G01*
X139078000Y-99953000D01*
G75*
G02*
X138828000Y-99703000I0J250000D01*
G01*
X138828000Y-99203000D01*
G75*
G02*
X139078000Y-98953000I250000J0D01*
G01*
X140578000Y-98953000D01*
G75*
G02*
X140828000Y-99203000I0J-250000D01*
G01*
G37*
G36*
G01*
X140828000Y-97703000D02*
X140828000Y-98203000D01*
G75*
G02*
X140578000Y-98453000I-250000J0D01*
G01*
X139078000Y-98453000D01*
G75*
G02*
X138828000Y-98203000I0J250000D01*
G01*
X138828000Y-97703000D01*
G75*
G02*
X139078000Y-97453000I250000J0D01*
G01*
X140578000Y-97453000D01*
G75*
G02*
X140828000Y-97703000I0J-250000D01*
G01*
G37*
G36*
G01*
X140828000Y-96203000D02*
X140828000Y-96703000D01*
G75*
G02*
X140578000Y-96953000I-250000J0D01*
G01*
X139078000Y-96953000D01*
G75*
G02*
X138828000Y-96703000I0J250000D01*
G01*
X138828000Y-96203000D01*
G75*
G02*
X139078000Y-95953000I250000J0D01*
G01*
X140578000Y-95953000D01*
G75*
G02*
X140828000Y-96203000I0J-250000D01*
G01*
G37*
G36*
G01*
X140828000Y-94703000D02*
X140828000Y-95203000D01*
G75*
G02*
X140578000Y-95453000I-250000J0D01*
G01*
X139078000Y-95453000D01*
G75*
G02*
X138828000Y-95203000I0J250000D01*
G01*
X138828000Y-94703000D01*
G75*
G02*
X139078000Y-94453000I250000J0D01*
G01*
X140578000Y-94453000D01*
G75*
G02*
X140828000Y-94703000I0J-250000D01*
G01*
G37*
G36*
G01*
X140828000Y-93203000D02*
X140828000Y-93703000D01*
G75*
G02*
X140578000Y-93953000I-250000J0D01*
G01*
X139078000Y-93953000D01*
G75*
G02*
X138828000Y-93703000I0J250000D01*
G01*
X138828000Y-93203000D01*
G75*
G02*
X139078000Y-92953000I250000J0D01*
G01*
X140578000Y-92953000D01*
G75*
G02*
X140828000Y-93203000I0J-250000D01*
G01*
G37*
G36*
G01*
X156828000Y-106703000D02*
X156828000Y-107203000D01*
G75*
G02*
X156578000Y-107453000I-250000J0D01*
G01*
X155078000Y-107453000D01*
G75*
G02*
X154828000Y-107203000I0J250000D01*
G01*
X154828000Y-106703000D01*
G75*
G02*
X155078000Y-106453000I250000J0D01*
G01*
X156578000Y-106453000D01*
G75*
G02*
X156828000Y-106703000I0J-250000D01*
G01*
G37*
G36*
G01*
X156828000Y-105203000D02*
X156828000Y-105703000D01*
G75*
G02*
X156578000Y-105953000I-250000J0D01*
G01*
X155078000Y-105953000D01*
G75*
G02*
X154828000Y-105703000I0J250000D01*
G01*
X154828000Y-105203000D01*
G75*
G02*
X155078000Y-104953000I250000J0D01*
G01*
X156578000Y-104953000D01*
G75*
G02*
X156828000Y-105203000I0J-250000D01*
G01*
G37*
G36*
G01*
X156828000Y-103703000D02*
X156828000Y-104203000D01*
G75*
G02*
X156578000Y-104453000I-250000J0D01*
G01*
X155078000Y-104453000D01*
G75*
G02*
X154828000Y-104203000I0J250000D01*
G01*
X154828000Y-103703000D01*
G75*
G02*
X155078000Y-103453000I250000J0D01*
G01*
X156578000Y-103453000D01*
G75*
G02*
X156828000Y-103703000I0J-250000D01*
G01*
G37*
G36*
G01*
X156828000Y-102203000D02*
X156828000Y-102703000D01*
G75*
G02*
X156578000Y-102953000I-250000J0D01*
G01*
X155078000Y-102953000D01*
G75*
G02*
X154828000Y-102703000I0J250000D01*
G01*
X154828000Y-102203000D01*
G75*
G02*
X155078000Y-101953000I250000J0D01*
G01*
X156578000Y-101953000D01*
G75*
G02*
X156828000Y-102203000I0J-250000D01*
G01*
G37*
G36*
G01*
X156828000Y-100703000D02*
X156828000Y-101203000D01*
G75*
G02*
X156578000Y-101453000I-250000J0D01*
G01*
X155078000Y-101453000D01*
G75*
G02*
X154828000Y-101203000I0J250000D01*
G01*
X154828000Y-100703000D01*
G75*
G02*
X155078000Y-100453000I250000J0D01*
G01*
X156578000Y-100453000D01*
G75*
G02*
X156828000Y-100703000I0J-250000D01*
G01*
G37*
G36*
G01*
X156828000Y-99203000D02*
X156828000Y-99703000D01*
G75*
G02*
X156578000Y-99953000I-250000J0D01*
G01*
X155078000Y-99953000D01*
G75*
G02*
X154828000Y-99703000I0J250000D01*
G01*
X154828000Y-99203000D01*
G75*
G02*
X155078000Y-98953000I250000J0D01*
G01*
X156578000Y-98953000D01*
G75*
G02*
X156828000Y-99203000I0J-250000D01*
G01*
G37*
G36*
G01*
X156828000Y-97703000D02*
X156828000Y-98203000D01*
G75*
G02*
X156578000Y-98453000I-250000J0D01*
G01*
X155078000Y-98453000D01*
G75*
G02*
X154828000Y-98203000I0J250000D01*
G01*
X154828000Y-97703000D01*
G75*
G02*
X155078000Y-97453000I250000J0D01*
G01*
X156578000Y-97453000D01*
G75*
G02*
X156828000Y-97703000I0J-250000D01*
G01*
G37*
G36*
G01*
X156828000Y-96203000D02*
X156828000Y-96703000D01*
G75*
G02*
X156578000Y-96953000I-250000J0D01*
G01*
X155078000Y-96953000D01*
G75*
G02*
X154828000Y-96703000I0J250000D01*
G01*
X154828000Y-96203000D01*
G75*
G02*
X155078000Y-95953000I250000J0D01*
G01*
X156578000Y-95953000D01*
G75*
G02*
X156828000Y-96203000I0J-250000D01*
G01*
G37*
G36*
G01*
X156828000Y-94703000D02*
X156828000Y-95203000D01*
G75*
G02*
X156578000Y-95453000I-250000J0D01*
G01*
X155078000Y-95453000D01*
G75*
G02*
X154828000Y-95203000I0J250000D01*
G01*
X154828000Y-94703000D01*
G75*
G02*
X155078000Y-94453000I250000J0D01*
G01*
X156578000Y-94453000D01*
G75*
G02*
X156828000Y-94703000I0J-250000D01*
G01*
G37*
G36*
G01*
X156828000Y-93203000D02*
X156828000Y-93703000D01*
G75*
G02*
X156578000Y-93953000I-250000J0D01*
G01*
X155078000Y-93953000D01*
G75*
G02*
X154828000Y-93703000I0J250000D01*
G01*
X154828000Y-93203000D01*
G75*
G02*
X155078000Y-92953000I250000J0D01*
G01*
X156578000Y-92953000D01*
G75*
G02*
X156828000Y-93203000I0J-250000D01*
G01*
G37*
D10*
X167233600Y-97917000D03*
X167640000Y-97917000D03*
X168046400Y-97917000D03*
X168046400Y-99212400D03*
X167640000Y-99212400D03*
X167233600Y-99212400D03*
D11*
X167640000Y-98564700D03*
G36*
G01*
X128891000Y-91879000D02*
X128891000Y-91509000D01*
G75*
G02*
X129026000Y-91374000I135000J0D01*
G01*
X129296000Y-91374000D01*
G75*
G02*
X129431000Y-91509000I0J-135000D01*
G01*
X129431000Y-91879000D01*
G75*
G02*
X129296000Y-92014000I-135000J0D01*
G01*
X129026000Y-92014000D01*
G75*
G02*
X128891000Y-91879000I0J135000D01*
G01*
G37*
G36*
G01*
X127871000Y-91879000D02*
X127871000Y-91509000D01*
G75*
G02*
X128006000Y-91374000I135000J0D01*
G01*
X128276000Y-91374000D01*
G75*
G02*
X128411000Y-91509000I0J-135000D01*
G01*
X128411000Y-91879000D01*
G75*
G02*
X128276000Y-92014000I-135000J0D01*
G01*
X128006000Y-92014000D01*
G75*
G02*
X127871000Y-91879000I0J135000D01*
G01*
G37*
G36*
G01*
X155432000Y-76385000D02*
X155432000Y-76015000D01*
G75*
G02*
X155567000Y-75880000I135000J0D01*
G01*
X155837000Y-75880000D01*
G75*
G02*
X155972000Y-76015000I0J-135000D01*
G01*
X155972000Y-76385000D01*
G75*
G02*
X155837000Y-76520000I-135000J0D01*
G01*
X155567000Y-76520000D01*
G75*
G02*
X155432000Y-76385000I0J135000D01*
G01*
G37*
G36*
G01*
X154412000Y-76385000D02*
X154412000Y-76015000D01*
G75*
G02*
X154547000Y-75880000I135000J0D01*
G01*
X154817000Y-75880000D01*
G75*
G02*
X154952000Y-76015000I0J-135000D01*
G01*
X154952000Y-76385000D01*
G75*
G02*
X154817000Y-76520000I-135000J0D01*
G01*
X154547000Y-76520000D01*
G75*
G02*
X154412000Y-76385000I0J135000D01*
G01*
G37*
G36*
G01*
X157974000Y-76385000D02*
X157974000Y-76015000D01*
G75*
G02*
X158109000Y-75880000I135000J0D01*
G01*
X158379000Y-75880000D01*
G75*
G02*
X158514000Y-76015000I0J-135000D01*
G01*
X158514000Y-76385000D01*
G75*
G02*
X158379000Y-76520000I-135000J0D01*
G01*
X158109000Y-76520000D01*
G75*
G02*
X157974000Y-76385000I0J135000D01*
G01*
G37*
G36*
G01*
X156954000Y-76385000D02*
X156954000Y-76015000D01*
G75*
G02*
X157089000Y-75880000I135000J0D01*
G01*
X157359000Y-75880000D01*
G75*
G02*
X157494000Y-76015000I0J-135000D01*
G01*
X157494000Y-76385000D01*
G75*
G02*
X157359000Y-76520000I-135000J0D01*
G01*
X157089000Y-76520000D01*
G75*
G02*
X156954000Y-76385000I0J135000D01*
G01*
G37*
G36*
G01*
X145274000Y-80322000D02*
X145274000Y-79952000D01*
G75*
G02*
X145409000Y-79817000I135000J0D01*
G01*
X145679000Y-79817000D01*
G75*
G02*
X145814000Y-79952000I0J-135000D01*
G01*
X145814000Y-80322000D01*
G75*
G02*
X145679000Y-80457000I-135000J0D01*
G01*
X145409000Y-80457000D01*
G75*
G02*
X145274000Y-80322000I0J135000D01*
G01*
G37*
G36*
G01*
X144254000Y-80322000D02*
X144254000Y-79952000D01*
G75*
G02*
X144389000Y-79817000I135000J0D01*
G01*
X144659000Y-79817000D01*
G75*
G02*
X144794000Y-79952000I0J-135000D01*
G01*
X144794000Y-80322000D01*
G75*
G02*
X144659000Y-80457000I-135000J0D01*
G01*
X144389000Y-80457000D01*
G75*
G02*
X144254000Y-80322000I0J135000D01*
G01*
G37*
G36*
G01*
X138698000Y-87064000D02*
X138698000Y-87434000D01*
G75*
G02*
X138563000Y-87569000I-135000J0D01*
G01*
X138293000Y-87569000D01*
G75*
G02*
X138158000Y-87434000I0J135000D01*
G01*
X138158000Y-87064000D01*
G75*
G02*
X138293000Y-86929000I135000J0D01*
G01*
X138563000Y-86929000D01*
G75*
G02*
X138698000Y-87064000I0J-135000D01*
G01*
G37*
G36*
G01*
X139718000Y-87064000D02*
X139718000Y-87434000D01*
G75*
G02*
X139583000Y-87569000I-135000J0D01*
G01*
X139313000Y-87569000D01*
G75*
G02*
X139178000Y-87434000I0J135000D01*
G01*
X139178000Y-87064000D01*
G75*
G02*
X139313000Y-86929000I135000J0D01*
G01*
X139583000Y-86929000D01*
G75*
G02*
X139718000Y-87064000I0J-135000D01*
G01*
G37*
G36*
G01*
X142734000Y-87434000D02*
X142734000Y-87064000D01*
G75*
G02*
X142869000Y-86929000I135000J0D01*
G01*
X143139000Y-86929000D01*
G75*
G02*
X143274000Y-87064000I0J-135000D01*
G01*
X143274000Y-87434000D01*
G75*
G02*
X143139000Y-87569000I-135000J0D01*
G01*
X142869000Y-87569000D01*
G75*
G02*
X142734000Y-87434000I0J135000D01*
G01*
G37*
G36*
G01*
X141714000Y-87434000D02*
X141714000Y-87064000D01*
G75*
G02*
X141849000Y-86929000I135000J0D01*
G01*
X142119000Y-86929000D01*
G75*
G02*
X142254000Y-87064000I0J-135000D01*
G01*
X142254000Y-87434000D01*
G75*
G02*
X142119000Y-87569000I-135000J0D01*
G01*
X141849000Y-87569000D01*
G75*
G02*
X141714000Y-87434000I0J135000D01*
G01*
G37*
G36*
G01*
X132403000Y-77710000D02*
X132773000Y-77710000D01*
G75*
G02*
X132908000Y-77845000I0J-135000D01*
G01*
X132908000Y-78115000D01*
G75*
G02*
X132773000Y-78250000I-135000J0D01*
G01*
X132403000Y-78250000D01*
G75*
G02*
X132268000Y-78115000I0J135000D01*
G01*
X132268000Y-77845000D01*
G75*
G02*
X132403000Y-77710000I135000J0D01*
G01*
G37*
G36*
G01*
X132403000Y-76690000D02*
X132773000Y-76690000D01*
G75*
G02*
X132908000Y-76825000I0J-135000D01*
G01*
X132908000Y-77095000D01*
G75*
G02*
X132773000Y-77230000I-135000J0D01*
G01*
X132403000Y-77230000D01*
G75*
G02*
X132268000Y-77095000I0J135000D01*
G01*
X132268000Y-76825000D01*
G75*
G02*
X132403000Y-76690000I135000J0D01*
G01*
G37*
G36*
G01*
X133546000Y-77710000D02*
X133916000Y-77710000D01*
G75*
G02*
X134051000Y-77845000I0J-135000D01*
G01*
X134051000Y-78115000D01*
G75*
G02*
X133916000Y-78250000I-135000J0D01*
G01*
X133546000Y-78250000D01*
G75*
G02*
X133411000Y-78115000I0J135000D01*
G01*
X133411000Y-77845000D01*
G75*
G02*
X133546000Y-77710000I135000J0D01*
G01*
G37*
G36*
G01*
X133546000Y-76690000D02*
X133916000Y-76690000D01*
G75*
G02*
X134051000Y-76825000I0J-135000D01*
G01*
X134051000Y-77095000D01*
G75*
G02*
X133916000Y-77230000I-135000J0D01*
G01*
X133546000Y-77230000D01*
G75*
G02*
X133411000Y-77095000I0J135000D01*
G01*
X133411000Y-76825000D01*
G75*
G02*
X133546000Y-76690000I135000J0D01*
G01*
G37*
G36*
G01*
X145528000Y-109278000D02*
X145528000Y-108908000D01*
G75*
G02*
X145663000Y-108773000I135000J0D01*
G01*
X145933000Y-108773000D01*
G75*
G02*
X146068000Y-108908000I0J-135000D01*
G01*
X146068000Y-109278000D01*
G75*
G02*
X145933000Y-109413000I-135000J0D01*
G01*
X145663000Y-109413000D01*
G75*
G02*
X145528000Y-109278000I0J135000D01*
G01*
G37*
G36*
G01*
X144508000Y-109278000D02*
X144508000Y-108908000D01*
G75*
G02*
X144643000Y-108773000I135000J0D01*
G01*
X144913000Y-108773000D01*
G75*
G02*
X145048000Y-108908000I0J-135000D01*
G01*
X145048000Y-109278000D01*
G75*
G02*
X144913000Y-109413000I-135000J0D01*
G01*
X144643000Y-109413000D01*
G75*
G02*
X144508000Y-109278000I0J135000D01*
G01*
G37*
D12*
X145415000Y-76724000D03*
X144465000Y-78724000D03*
X146365000Y-78724000D03*
D13*
X163195000Y-87249000D03*
X169545000Y-87249000D03*
D14*
X165745000Y-90149000D03*
X166995000Y-90149000D03*
D15*
X137161000Y-106807000D03*
D16*
X135636000Y-105332000D03*
X135636000Y-108282000D03*
G36*
G01*
X145234000Y-81450000D02*
X145234000Y-81110000D01*
G75*
G02*
X145374000Y-80970000I140000J0D01*
G01*
X145654000Y-80970000D01*
G75*
G02*
X145794000Y-81110000I0J-140000D01*
G01*
X145794000Y-81450000D01*
G75*
G02*
X145654000Y-81590000I-140000J0D01*
G01*
X145374000Y-81590000D01*
G75*
G02*
X145234000Y-81450000I0J140000D01*
G01*
G37*
G36*
G01*
X144274000Y-81450000D02*
X144274000Y-81110000D01*
G75*
G02*
X144414000Y-80970000I140000J0D01*
G01*
X144694000Y-80970000D01*
G75*
G02*
X144834000Y-81110000I0J-140000D01*
G01*
X144834000Y-81450000D01*
G75*
G02*
X144694000Y-81590000I-140000J0D01*
G01*
X144414000Y-81590000D01*
G75*
G02*
X144274000Y-81450000I0J140000D01*
G01*
G37*
G36*
G01*
X145740000Y-82927000D02*
X145740000Y-82427000D01*
G75*
G02*
X145965000Y-82202000I225000J0D01*
G01*
X146415000Y-82202000D01*
G75*
G02*
X146640000Y-82427000I0J-225000D01*
G01*
X146640000Y-82927000D01*
G75*
G02*
X146415000Y-83152000I-225000J0D01*
G01*
X145965000Y-83152000D01*
G75*
G02*
X145740000Y-82927000I0J225000D01*
G01*
G37*
G36*
G01*
X144190000Y-82927000D02*
X144190000Y-82427000D01*
G75*
G02*
X144415000Y-82202000I225000J0D01*
G01*
X144865000Y-82202000D01*
G75*
G02*
X145090000Y-82427000I0J-225000D01*
G01*
X145090000Y-82927000D01*
G75*
G02*
X144865000Y-83152000I-225000J0D01*
G01*
X144415000Y-83152000D01*
G75*
G02*
X144190000Y-82927000I0J225000D01*
G01*
G37*
G36*
G01*
X167201000Y-92804000D02*
X167201000Y-91854000D01*
G75*
G02*
X167451000Y-91604000I250000J0D01*
G01*
X167951000Y-91604000D01*
G75*
G02*
X168201000Y-91854000I0J-250000D01*
G01*
X168201000Y-92804000D01*
G75*
G02*
X167951000Y-93054000I-250000J0D01*
G01*
X167451000Y-93054000D01*
G75*
G02*
X167201000Y-92804000I0J250000D01*
G01*
G37*
G36*
G01*
X165301000Y-92804000D02*
X165301000Y-91854000D01*
G75*
G02*
X165551000Y-91604000I250000J0D01*
G01*
X166051000Y-91604000D01*
G75*
G02*
X166301000Y-91854000I0J-250000D01*
G01*
X166301000Y-92804000D01*
G75*
G02*
X166051000Y-93054000I-250000J0D01*
G01*
X165551000Y-93054000D01*
G75*
G02*
X165301000Y-92804000I0J250000D01*
G01*
G37*
G36*
G01*
X159185000Y-87587000D02*
X159185000Y-87927000D01*
G75*
G02*
X159045000Y-88067000I-140000J0D01*
G01*
X158765000Y-88067000D01*
G75*
G02*
X158625000Y-87927000I0J140000D01*
G01*
X158625000Y-87587000D01*
G75*
G02*
X158765000Y-87447000I140000J0D01*
G01*
X159045000Y-87447000D01*
G75*
G02*
X159185000Y-87587000I0J-140000D01*
G01*
G37*
G36*
G01*
X160145000Y-87587000D02*
X160145000Y-87927000D01*
G75*
G02*
X160005000Y-88067000I-140000J0D01*
G01*
X159725000Y-88067000D01*
G75*
G02*
X159585000Y-87927000I0J140000D01*
G01*
X159585000Y-87587000D01*
G75*
G02*
X159725000Y-87447000I140000J0D01*
G01*
X160005000Y-87447000D01*
G75*
G02*
X160145000Y-87587000I0J-140000D01*
G01*
G37*
G36*
G01*
X158300000Y-84107000D02*
X158300000Y-85057000D01*
G75*
G02*
X158050000Y-85307000I-250000J0D01*
G01*
X157550000Y-85307000D01*
G75*
G02*
X157300000Y-85057000I0J250000D01*
G01*
X157300000Y-84107000D01*
G75*
G02*
X157550000Y-83857000I250000J0D01*
G01*
X158050000Y-83857000D01*
G75*
G02*
X158300000Y-84107000I0J-250000D01*
G01*
G37*
G36*
G01*
X160200000Y-84107000D02*
X160200000Y-85057000D01*
G75*
G02*
X159950000Y-85307000I-250000J0D01*
G01*
X159450000Y-85307000D01*
G75*
G02*
X159200000Y-85057000I0J250000D01*
G01*
X159200000Y-84107000D01*
G75*
G02*
X159450000Y-83857000I250000J0D01*
G01*
X159950000Y-83857000D01*
G75*
G02*
X160200000Y-84107000I0J-250000D01*
G01*
G37*
G36*
G01*
X168346000Y-96897000D02*
X168346000Y-96397000D01*
G75*
G02*
X168571000Y-96172000I225000J0D01*
G01*
X169021000Y-96172000D01*
G75*
G02*
X169246000Y-96397000I0J-225000D01*
G01*
X169246000Y-96897000D01*
G75*
G02*
X169021000Y-97122000I-225000J0D01*
G01*
X168571000Y-97122000D01*
G75*
G02*
X168346000Y-96897000I0J225000D01*
G01*
G37*
G36*
G01*
X166796000Y-96897000D02*
X166796000Y-96397000D01*
G75*
G02*
X167021000Y-96172000I225000J0D01*
G01*
X167471000Y-96172000D01*
G75*
G02*
X167696000Y-96397000I0J-225000D01*
G01*
X167696000Y-96897000D01*
G75*
G02*
X167471000Y-97122000I-225000J0D01*
G01*
X167021000Y-97122000D01*
G75*
G02*
X166796000Y-96897000I0J225000D01*
G01*
G37*
G36*
G01*
X167186000Y-100033000D02*
X167186000Y-100373000D01*
G75*
G02*
X167046000Y-100513000I-140000J0D01*
G01*
X166766000Y-100513000D01*
G75*
G02*
X166626000Y-100373000I0J140000D01*
G01*
X166626000Y-100033000D01*
G75*
G02*
X166766000Y-99893000I140000J0D01*
G01*
X167046000Y-99893000D01*
G75*
G02*
X167186000Y-100033000I0J-140000D01*
G01*
G37*
G36*
G01*
X168146000Y-100033000D02*
X168146000Y-100373000D01*
G75*
G02*
X168006000Y-100513000I-140000J0D01*
G01*
X167726000Y-100513000D01*
G75*
G02*
X167586000Y-100373000I0J140000D01*
G01*
X167586000Y-100033000D01*
G75*
G02*
X167726000Y-99893000I140000J0D01*
G01*
X168006000Y-99893000D01*
G75*
G02*
X168146000Y-100033000I0J-140000D01*
G01*
G37*
G36*
G01*
X166680000Y-101223000D02*
X166680000Y-101723000D01*
G75*
G02*
X166455000Y-101948000I-225000J0D01*
G01*
X166005000Y-101948000D01*
G75*
G02*
X165780000Y-101723000I0J225000D01*
G01*
X165780000Y-101223000D01*
G75*
G02*
X166005000Y-100998000I225000J0D01*
G01*
X166455000Y-100998000D01*
G75*
G02*
X166680000Y-101223000I0J-225000D01*
G01*
G37*
G36*
G01*
X168230000Y-101223000D02*
X168230000Y-101723000D01*
G75*
G02*
X168005000Y-101948000I-225000J0D01*
G01*
X167555000Y-101948000D01*
G75*
G02*
X167330000Y-101723000I0J225000D01*
G01*
X167330000Y-101223000D01*
G75*
G02*
X167555000Y-100998000I225000J0D01*
G01*
X168005000Y-100998000D01*
G75*
G02*
X168230000Y-101223000I0J-225000D01*
G01*
G37*
G36*
G01*
X147501000Y-108923000D02*
X147501000Y-109263000D01*
G75*
G02*
X147361000Y-109403000I-140000J0D01*
G01*
X147081000Y-109403000D01*
G75*
G02*
X146941000Y-109263000I0J140000D01*
G01*
X146941000Y-108923000D01*
G75*
G02*
X147081000Y-108783000I140000J0D01*
G01*
X147361000Y-108783000D01*
G75*
G02*
X147501000Y-108923000I0J-140000D01*
G01*
G37*
G36*
G01*
X148461000Y-108923000D02*
X148461000Y-109263000D01*
G75*
G02*
X148321000Y-109403000I-140000J0D01*
G01*
X148041000Y-109403000D01*
G75*
G02*
X147901000Y-109263000I0J140000D01*
G01*
X147901000Y-108923000D01*
G75*
G02*
X148041000Y-108783000I140000J0D01*
G01*
X148321000Y-108783000D01*
G75*
G02*
X148461000Y-108923000I0J-140000D01*
G01*
G37*
M02*
