M48
; DRILL file {KiCad (5.1.10)-1} date 12/08/21 00:23:24
; FORMAT={-:-/ absolute / metric / decimal}
; #@! TF.CreationDate,2021-12-08T00:23:24-08:00
; #@! TF.GenerationSoftware,Kicad,Pcbnew,(5.1.10)-1
; #@! TF.FileFunction,Plated,1,4,PTH
FMAT,2
METRIC
T1C0.250
T2C1.000
T3C1.092
T4C1.100
%
G90
G05
T1
X125.019Y-75.286
X125.019Y-81.636
X125.019Y-87.986
X125.019Y-94.285
X125.019Y-100.584
X125.019Y-105.308
X126.238Y-69.596
X128.88Y-109.118
X129.184Y-92.304
X131.318Y-68.732
X132.994Y-80.01
X134.874Y-104.521
X135.001Y-109.093
X136.144Y-106.426
X136.144Y-107.188
X136.144Y-109.093
X136.271Y-104.521
X136.601Y-80.975
X137.541Y-105.791
X137.541Y-107.823
X137.871Y-87.274
X138.303Y-106.426
X138.303Y-107.442
X138.43Y-104.902
X138.557Y-94.361
X138.557Y-95.631
X139.192Y-109.169
X139.395Y-86.055
X140.665Y-91.44
X141.834Y-84.277
X141.859Y-94.996
X141.859Y-101.854
X142.342Y-68.732
X142.951Y-87.884
X143.383Y-99.822
X143.637Y-103.251
X143.815Y-80.569
X144.018Y-108.585
X144.399Y-102.87
X145.796Y-81.89
X146.431Y-109.093
X146.507Y-77.673
X147.32Y-92.659
X148.463Y-101.092
X148.971Y-108.585
X149.974Y-101.092
X149.987Y-103.251
X150.317Y-84.531
X150.47Y-100.025
X152.095Y-99.466
X152.248Y-102.057
X152.705Y-96.723
X152.705Y-98.806
X153.365Y-68.732
X153.924Y-109.626
X154.432Y-93.523
X154.432Y-96.469
X154.432Y-103.937
X156.972Y-84.074
X156.972Y-85.09
X157.175Y-96.469
X157.226Y-97.993
X157.226Y-103.759
X157.48Y-102.997
X158.242Y-101.092
X158.369Y-88.138
X158.902Y-102.565
X159.004Y-85.852
X159.461Y-109.626
X159.766Y-86.741
X159.766Y-105.156
X159.766Y-105.918
X160.147Y-103.251
X160.147Y-107.696
X160.401Y-85.852
X160.401Y-101.727
X160.401Y-104.902
X160.63Y-100.127
X162.154Y-100.127
X162.814Y-96.012
X163.322Y-99.695
X163.957Y-96.012
X164.084Y-107.798
X164.211Y-105.41
X164.211Y-106.045
X164.338Y-68.732
X164.592Y-86.233
X164.592Y-88.392
X164.592Y-99.695
X164.643Y-109.474
X165.1Y-80.67
X165.1Y-96.012
X165.151Y-71.679
X165.354Y-93.345
X165.608Y-105.41
X165.608Y-106.045
X165.735Y-99.695
X165.735Y-103.632
X165.805Y-100.486
X166.116Y-96.012
X166.319Y-100.178
X166.37Y-93.345
X166.751Y-94.107
X166.929Y-95.656
X167.132Y-102.362
X167.132Y-103.022
X167.64Y-95.656
X167.767Y-89.789
X167.767Y-90.805
X167.894Y-102.362
X168.148Y-86.233
X168.148Y-88.392
X168.402Y-98.552
X168.529Y-91.694
X168.529Y-104.089
X168.605Y-82.956
X168.808Y-95.86
X168.859Y-97.434
X169.266Y-105.004
X169.266Y-109.372
X169.977Y-69.647
X170.383Y-107.239
X170.434Y-93.421
X170.434Y-101.498
X170.485Y-74.524
X170.485Y-81.89
X170.561Y-107.95
X170.942Y-105.512
T2
X144.02Y-70.721
X146.56Y-70.721
X149.1Y-70.721
X151.64Y-70.721
T3
X127.127Y-93.345
X127.127Y-95.834
X133.02Y-93.345
X133.02Y-95.834
T4
X126.746Y-74.422
X126.746Y-76.962
X126.746Y-79.502
X126.746Y-82.042
X126.746Y-84.582
X126.746Y-87.122
X126.746Y-89.662
X129.286Y-74.422
X129.286Y-89.662
X131.826Y-74.422
X131.826Y-89.662
X134.366Y-74.422
X134.366Y-89.662
X136.906Y-74.422
X136.906Y-89.662
X139.446Y-74.422
X139.446Y-89.662
X141.986Y-74.422
X141.986Y-89.662
X144.526Y-74.422
X144.526Y-89.662
X147.066Y-74.422
X147.066Y-87.122
X147.066Y-89.662
X149.606Y-74.422
X149.606Y-87.122
X149.606Y-89.662
X152.146Y-74.422
X152.146Y-87.122
X152.146Y-89.662
X154.686Y-74.422
X154.686Y-89.662
X157.226Y-74.422
X157.226Y-87.122
X157.226Y-89.662
X159.588Y-79.756
X159.588Y-81.737
X159.766Y-74.422
X159.766Y-89.662
T0
M30
