%TF.GenerationSoftware,KiCad,Pcbnew,(5.1.10)-1*%
%TF.CreationDate,2021-12-08T00:23:12-08:00*%
%TF.ProjectId,Climbing_Main_Rev_A,436c696d-6269-46e6-975f-4d61696e5f52,rev?*%
%TF.SameCoordinates,Original*%
%TF.FileFunction,Paste,Top*%
%TF.FilePolarity,Positive*%
%FSLAX46Y46*%
G04 Gerber Fmt 4.6, Leading zero omitted, Abs format (unit mm)*
G04 Created by KiCad (PCBNEW (5.1.10)-1) date 2021-12-08 00:23:12*
%MOMM*%
%LPD*%
G01*
G04 APERTURE LIST*
%ADD10C,0.010000*%
%ADD11R,1.400000X2.100000*%
%ADD12R,0.700000X0.450000*%
%ADD13R,0.450000X0.700000*%
%ADD14R,0.800000X0.900000*%
%ADD15R,0.900000X0.800000*%
%ADD16R,0.850000X0.650000*%
%ADD17R,2.180000X2.000000*%
%ADD18R,0.300000X1.150000*%
%ADD19R,0.600000X1.150000*%
G04 APERTURE END LIST*
D10*
G36*
X164062000Y-103019000D02*
G01*
X164062000Y-101959000D01*
X165122000Y-101959000D01*
X165122000Y-103019000D01*
X164062000Y-103019000D01*
G37*
X164062000Y-103019000D02*
X164062000Y-101959000D01*
X165122000Y-101959000D01*
X165122000Y-103019000D01*
X164062000Y-103019000D01*
G36*
G01*
X166449200Y-103369000D02*
X165604800Y-103369000D01*
G75*
G02*
X165597000Y-103361200I0J7800D01*
G01*
X165597000Y-103116800D01*
G75*
G02*
X165604800Y-103109000I7800J0D01*
G01*
X166449200Y-103109000D01*
G75*
G02*
X166457000Y-103116800I0J-7800D01*
G01*
X166457000Y-103361200D01*
G75*
G02*
X166449200Y-103369000I-7800J0D01*
G01*
G37*
G36*
G01*
X166449200Y-102869000D02*
X165604800Y-102869000D01*
G75*
G02*
X165597000Y-102861200I0J7800D01*
G01*
X165597000Y-102616800D01*
G75*
G02*
X165604800Y-102609000I7800J0D01*
G01*
X166449200Y-102609000D01*
G75*
G02*
X166457000Y-102616800I0J-7800D01*
G01*
X166457000Y-102861200D01*
G75*
G02*
X166449200Y-102869000I-7800J0D01*
G01*
G37*
G36*
G01*
X166449200Y-102369000D02*
X165604800Y-102369000D01*
G75*
G02*
X165597000Y-102361200I0J7800D01*
G01*
X165597000Y-102116800D01*
G75*
G02*
X165604800Y-102109000I7800J0D01*
G01*
X166449200Y-102109000D01*
G75*
G02*
X166457000Y-102116800I0J-7800D01*
G01*
X166457000Y-102361200D01*
G75*
G02*
X166449200Y-102369000I-7800J0D01*
G01*
G37*
G36*
G01*
X166449200Y-101869000D02*
X165604800Y-101869000D01*
G75*
G02*
X165597000Y-101861200I0J7800D01*
G01*
X165597000Y-101616800D01*
G75*
G02*
X165604800Y-101609000I7800J0D01*
G01*
X166449200Y-101609000D01*
G75*
G02*
X166457000Y-101616800I0J-7800D01*
G01*
X166457000Y-101861200D01*
G75*
G02*
X166449200Y-101869000I-7800J0D01*
G01*
G37*
G36*
G01*
X163579200Y-101869000D02*
X162734800Y-101869000D01*
G75*
G02*
X162727000Y-101861200I0J7800D01*
G01*
X162727000Y-101616800D01*
G75*
G02*
X162734800Y-101609000I7800J0D01*
G01*
X163579200Y-101609000D01*
G75*
G02*
X163587000Y-101616800I0J-7800D01*
G01*
X163587000Y-101861200D01*
G75*
G02*
X163579200Y-101869000I-7800J0D01*
G01*
G37*
G36*
G01*
X163579200Y-102369000D02*
X162734800Y-102369000D01*
G75*
G02*
X162727000Y-102361200I0J7800D01*
G01*
X162727000Y-102116800D01*
G75*
G02*
X162734800Y-102109000I7800J0D01*
G01*
X163579200Y-102109000D01*
G75*
G02*
X163587000Y-102116800I0J-7800D01*
G01*
X163587000Y-102361200D01*
G75*
G02*
X163579200Y-102369000I-7800J0D01*
G01*
G37*
G36*
G01*
X163579200Y-102869000D02*
X162734800Y-102869000D01*
G75*
G02*
X162727000Y-102861200I0J7800D01*
G01*
X162727000Y-102616800D01*
G75*
G02*
X162734800Y-102609000I7800J0D01*
G01*
X163579200Y-102609000D01*
G75*
G02*
X163587000Y-102616800I0J-7800D01*
G01*
X163587000Y-102861200D01*
G75*
G02*
X163579200Y-102869000I-7800J0D01*
G01*
G37*
G36*
G01*
X163579200Y-103369000D02*
X162734800Y-103369000D01*
G75*
G02*
X162727000Y-103361200I0J7800D01*
G01*
X162727000Y-103116800D01*
G75*
G02*
X162734800Y-103109000I7800J0D01*
G01*
X163579200Y-103109000D01*
G75*
G02*
X163587000Y-103116800I0J-7800D01*
G01*
X163587000Y-103361200D01*
G75*
G02*
X163579200Y-103369000I-7800J0D01*
G01*
G37*
G36*
G01*
X163964200Y-104354000D02*
X163719800Y-104354000D01*
G75*
G02*
X163712000Y-104346200I0J7800D01*
G01*
X163712000Y-103501800D01*
G75*
G02*
X163719800Y-103494000I7800J0D01*
G01*
X163964200Y-103494000D01*
G75*
G02*
X163972000Y-103501800I0J-7800D01*
G01*
X163972000Y-104346200D01*
G75*
G02*
X163964200Y-104354000I-7800J0D01*
G01*
G37*
G36*
G01*
X164464200Y-104354000D02*
X164219800Y-104354000D01*
G75*
G02*
X164212000Y-104346200I0J7800D01*
G01*
X164212000Y-103501800D01*
G75*
G02*
X164219800Y-103494000I7800J0D01*
G01*
X164464200Y-103494000D01*
G75*
G02*
X164472000Y-103501800I0J-7800D01*
G01*
X164472000Y-104346200D01*
G75*
G02*
X164464200Y-104354000I-7800J0D01*
G01*
G37*
G36*
G01*
X164964200Y-104354000D02*
X164719800Y-104354000D01*
G75*
G02*
X164712000Y-104346200I0J7800D01*
G01*
X164712000Y-103501800D01*
G75*
G02*
X164719800Y-103494000I7800J0D01*
G01*
X164964200Y-103494000D01*
G75*
G02*
X164972000Y-103501800I0J-7800D01*
G01*
X164972000Y-104346200D01*
G75*
G02*
X164964200Y-104354000I-7800J0D01*
G01*
G37*
G36*
G01*
X165464200Y-104354000D02*
X165219800Y-104354000D01*
G75*
G02*
X165212000Y-104346200I0J7800D01*
G01*
X165212000Y-103501800D01*
G75*
G02*
X165219800Y-103494000I7800J0D01*
G01*
X165464200Y-103494000D01*
G75*
G02*
X165472000Y-103501800I0J-7800D01*
G01*
X165472000Y-104346200D01*
G75*
G02*
X165464200Y-104354000I-7800J0D01*
G01*
G37*
G36*
G01*
X165464200Y-101484000D02*
X165219800Y-101484000D01*
G75*
G02*
X165212000Y-101476200I0J7800D01*
G01*
X165212000Y-100631800D01*
G75*
G02*
X165219800Y-100624000I7800J0D01*
G01*
X165464200Y-100624000D01*
G75*
G02*
X165472000Y-100631800I0J-7800D01*
G01*
X165472000Y-101476200D01*
G75*
G02*
X165464200Y-101484000I-7800J0D01*
G01*
G37*
G36*
G01*
X164964200Y-101484000D02*
X164719800Y-101484000D01*
G75*
G02*
X164712000Y-101476200I0J7800D01*
G01*
X164712000Y-100631800D01*
G75*
G02*
X164719800Y-100624000I7800J0D01*
G01*
X164964200Y-100624000D01*
G75*
G02*
X164972000Y-100631800I0J-7800D01*
G01*
X164972000Y-101476200D01*
G75*
G02*
X164964200Y-101484000I-7800J0D01*
G01*
G37*
G36*
G01*
X164464200Y-101484000D02*
X164219800Y-101484000D01*
G75*
G02*
X164212000Y-101476200I0J7800D01*
G01*
X164212000Y-100631800D01*
G75*
G02*
X164219800Y-100624000I7800J0D01*
G01*
X164464200Y-100624000D01*
G75*
G02*
X164472000Y-100631800I0J-7800D01*
G01*
X164472000Y-101476200D01*
G75*
G02*
X164464200Y-101484000I-7800J0D01*
G01*
G37*
G36*
G01*
X163964200Y-101484000D02*
X163719800Y-101484000D01*
G75*
G02*
X163712000Y-101476200I0J7800D01*
G01*
X163712000Y-100631800D01*
G75*
G02*
X163719800Y-100624000I7800J0D01*
G01*
X163964200Y-100624000D01*
G75*
G02*
X163972000Y-100631800I0J-7800D01*
G01*
X163972000Y-101476200D01*
G75*
G02*
X163964200Y-101484000I-7800J0D01*
G01*
G37*
D11*
X164120000Y-84350000D03*
X164120000Y-93450000D03*
X168620000Y-93450000D03*
X168620000Y-84350000D03*
X164120000Y-80750000D03*
X164120000Y-71650000D03*
X168620000Y-71650000D03*
X168620000Y-80750000D03*
G36*
G01*
X159879000Y-108770000D02*
X159879000Y-108400000D01*
G75*
G02*
X160014000Y-108265000I135000J0D01*
G01*
X160284000Y-108265000D01*
G75*
G02*
X160419000Y-108400000I0J-135000D01*
G01*
X160419000Y-108770000D01*
G75*
G02*
X160284000Y-108905000I-135000J0D01*
G01*
X160014000Y-108905000D01*
G75*
G02*
X159879000Y-108770000I0J135000D01*
G01*
G37*
G36*
G01*
X158859000Y-108770000D02*
X158859000Y-108400000D01*
G75*
G02*
X158994000Y-108265000I135000J0D01*
G01*
X159264000Y-108265000D01*
G75*
G02*
X159399000Y-108400000I0J-135000D01*
G01*
X159399000Y-108770000D01*
G75*
G02*
X159264000Y-108905000I-135000J0D01*
G01*
X158994000Y-108905000D01*
G75*
G02*
X158859000Y-108770000I0J135000D01*
G01*
G37*
G36*
G01*
X157875000Y-106368000D02*
X157875000Y-106738000D01*
G75*
G02*
X157740000Y-106873000I-135000J0D01*
G01*
X157470000Y-106873000D01*
G75*
G02*
X157335000Y-106738000I0J135000D01*
G01*
X157335000Y-106368000D01*
G75*
G02*
X157470000Y-106233000I135000J0D01*
G01*
X157740000Y-106233000D01*
G75*
G02*
X157875000Y-106368000I0J-135000D01*
G01*
G37*
G36*
G01*
X158895000Y-106368000D02*
X158895000Y-106738000D01*
G75*
G02*
X158760000Y-106873000I-135000J0D01*
G01*
X158490000Y-106873000D01*
G75*
G02*
X158355000Y-106738000I0J135000D01*
G01*
X158355000Y-106368000D01*
G75*
G02*
X158490000Y-106233000I135000J0D01*
G01*
X158760000Y-106233000D01*
G75*
G02*
X158895000Y-106368000I0J-135000D01*
G01*
G37*
G36*
G01*
X158510000Y-101542000D02*
X158510000Y-101912000D01*
G75*
G02*
X158375000Y-102047000I-135000J0D01*
G01*
X158105000Y-102047000D01*
G75*
G02*
X157970000Y-101912000I0J135000D01*
G01*
X157970000Y-101542000D01*
G75*
G02*
X158105000Y-101407000I135000J0D01*
G01*
X158375000Y-101407000D01*
G75*
G02*
X158510000Y-101542000I0J-135000D01*
G01*
G37*
G36*
G01*
X159530000Y-101542000D02*
X159530000Y-101912000D01*
G75*
G02*
X159395000Y-102047000I-135000J0D01*
G01*
X159125000Y-102047000D01*
G75*
G02*
X158990000Y-101912000I0J135000D01*
G01*
X158990000Y-101542000D01*
G75*
G02*
X159125000Y-101407000I135000J0D01*
G01*
X159395000Y-101407000D01*
G75*
G02*
X159530000Y-101542000I0J-135000D01*
G01*
G37*
G36*
G01*
X169857000Y-107710000D02*
X169487000Y-107710000D01*
G75*
G02*
X169352000Y-107575000I0J135000D01*
G01*
X169352000Y-107305000D01*
G75*
G02*
X169487000Y-107170000I135000J0D01*
G01*
X169857000Y-107170000D01*
G75*
G02*
X169992000Y-107305000I0J-135000D01*
G01*
X169992000Y-107575000D01*
G75*
G02*
X169857000Y-107710000I-135000J0D01*
G01*
G37*
G36*
G01*
X169857000Y-108730000D02*
X169487000Y-108730000D01*
G75*
G02*
X169352000Y-108595000I0J135000D01*
G01*
X169352000Y-108325000D01*
G75*
G02*
X169487000Y-108190000I135000J0D01*
G01*
X169857000Y-108190000D01*
G75*
G02*
X169992000Y-108325000I0J-135000D01*
G01*
X169992000Y-108595000D01*
G75*
G02*
X169857000Y-108730000I-135000J0D01*
G01*
G37*
G36*
G01*
X161530000Y-104452000D02*
X161530000Y-104082000D01*
G75*
G02*
X161665000Y-103947000I135000J0D01*
G01*
X161935000Y-103947000D01*
G75*
G02*
X162070000Y-104082000I0J-135000D01*
G01*
X162070000Y-104452000D01*
G75*
G02*
X161935000Y-104587000I-135000J0D01*
G01*
X161665000Y-104587000D01*
G75*
G02*
X161530000Y-104452000I0J135000D01*
G01*
G37*
G36*
G01*
X160510000Y-104452000D02*
X160510000Y-104082000D01*
G75*
G02*
X160645000Y-103947000I135000J0D01*
G01*
X160915000Y-103947000D01*
G75*
G02*
X161050000Y-104082000I0J-135000D01*
G01*
X161050000Y-104452000D01*
G75*
G02*
X160915000Y-104587000I-135000J0D01*
G01*
X160645000Y-104587000D01*
G75*
G02*
X160510000Y-104452000I0J135000D01*
G01*
G37*
G36*
G01*
X161050000Y-102939000D02*
X161050000Y-103309000D01*
G75*
G02*
X160915000Y-103444000I-135000J0D01*
G01*
X160645000Y-103444000D01*
G75*
G02*
X160510000Y-103309000I0J135000D01*
G01*
X160510000Y-102939000D01*
G75*
G02*
X160645000Y-102804000I135000J0D01*
G01*
X160915000Y-102804000D01*
G75*
G02*
X161050000Y-102939000I0J-135000D01*
G01*
G37*
G36*
G01*
X162070000Y-102939000D02*
X162070000Y-103309000D01*
G75*
G02*
X161935000Y-103444000I-135000J0D01*
G01*
X161665000Y-103444000D01*
G75*
G02*
X161530000Y-103309000I0J135000D01*
G01*
X161530000Y-102939000D01*
G75*
G02*
X161665000Y-102804000I135000J0D01*
G01*
X161935000Y-102804000D01*
G75*
G02*
X162070000Y-102939000I0J-135000D01*
G01*
G37*
G36*
G01*
X145357000Y-95109000D02*
X145727000Y-95109000D01*
G75*
G02*
X145862000Y-95244000I0J-135000D01*
G01*
X145862000Y-95514000D01*
G75*
G02*
X145727000Y-95649000I-135000J0D01*
G01*
X145357000Y-95649000D01*
G75*
G02*
X145222000Y-95514000I0J135000D01*
G01*
X145222000Y-95244000D01*
G75*
G02*
X145357000Y-95109000I135000J0D01*
G01*
G37*
G36*
G01*
X145357000Y-94089000D02*
X145727000Y-94089000D01*
G75*
G02*
X145862000Y-94224000I0J-135000D01*
G01*
X145862000Y-94494000D01*
G75*
G02*
X145727000Y-94629000I-135000J0D01*
G01*
X145357000Y-94629000D01*
G75*
G02*
X145222000Y-94494000I0J135000D01*
G01*
X145222000Y-94224000D01*
G75*
G02*
X145357000Y-94089000I135000J0D01*
G01*
G37*
G36*
G01*
X144214000Y-95109000D02*
X144584000Y-95109000D01*
G75*
G02*
X144719000Y-95244000I0J-135000D01*
G01*
X144719000Y-95514000D01*
G75*
G02*
X144584000Y-95649000I-135000J0D01*
G01*
X144214000Y-95649000D01*
G75*
G02*
X144079000Y-95514000I0J135000D01*
G01*
X144079000Y-95244000D01*
G75*
G02*
X144214000Y-95109000I135000J0D01*
G01*
G37*
G36*
G01*
X144214000Y-94089000D02*
X144584000Y-94089000D01*
G75*
G02*
X144719000Y-94224000I0J-135000D01*
G01*
X144719000Y-94494000D01*
G75*
G02*
X144584000Y-94629000I-135000J0D01*
G01*
X144214000Y-94629000D01*
G75*
G02*
X144079000Y-94494000I0J135000D01*
G01*
X144079000Y-94224000D01*
G75*
G02*
X144214000Y-94089000I135000J0D01*
G01*
G37*
G36*
G01*
X148278000Y-102348000D02*
X148648000Y-102348000D01*
G75*
G02*
X148783000Y-102483000I0J-135000D01*
G01*
X148783000Y-102753000D01*
G75*
G02*
X148648000Y-102888000I-135000J0D01*
G01*
X148278000Y-102888000D01*
G75*
G02*
X148143000Y-102753000I0J135000D01*
G01*
X148143000Y-102483000D01*
G75*
G02*
X148278000Y-102348000I135000J0D01*
G01*
G37*
G36*
G01*
X148278000Y-101328000D02*
X148648000Y-101328000D01*
G75*
G02*
X148783000Y-101463000I0J-135000D01*
G01*
X148783000Y-101733000D01*
G75*
G02*
X148648000Y-101868000I-135000J0D01*
G01*
X148278000Y-101868000D01*
G75*
G02*
X148143000Y-101733000I0J135000D01*
G01*
X148143000Y-101463000D01*
G75*
G02*
X148278000Y-101328000I135000J0D01*
G01*
G37*
G36*
G01*
X144131000Y-100642000D02*
X144131000Y-100272000D01*
G75*
G02*
X144266000Y-100137000I135000J0D01*
G01*
X144536000Y-100137000D01*
G75*
G02*
X144671000Y-100272000I0J-135000D01*
G01*
X144671000Y-100642000D01*
G75*
G02*
X144536000Y-100777000I-135000J0D01*
G01*
X144266000Y-100777000D01*
G75*
G02*
X144131000Y-100642000I0J135000D01*
G01*
G37*
G36*
G01*
X143111000Y-100642000D02*
X143111000Y-100272000D01*
G75*
G02*
X143246000Y-100137000I135000J0D01*
G01*
X143516000Y-100137000D01*
G75*
G02*
X143651000Y-100272000I0J-135000D01*
G01*
X143651000Y-100642000D01*
G75*
G02*
X143516000Y-100777000I-135000J0D01*
G01*
X143246000Y-100777000D01*
G75*
G02*
X143111000Y-100642000I0J135000D01*
G01*
G37*
G36*
G01*
X149537000Y-94629000D02*
X149167000Y-94629000D01*
G75*
G02*
X149032000Y-94494000I0J135000D01*
G01*
X149032000Y-94224000D01*
G75*
G02*
X149167000Y-94089000I135000J0D01*
G01*
X149537000Y-94089000D01*
G75*
G02*
X149672000Y-94224000I0J-135000D01*
G01*
X149672000Y-94494000D01*
G75*
G02*
X149537000Y-94629000I-135000J0D01*
G01*
G37*
G36*
G01*
X149537000Y-95649000D02*
X149167000Y-95649000D01*
G75*
G02*
X149032000Y-95514000I0J135000D01*
G01*
X149032000Y-95244000D01*
G75*
G02*
X149167000Y-95109000I135000J0D01*
G01*
X149537000Y-95109000D01*
G75*
G02*
X149672000Y-95244000I0J-135000D01*
G01*
X149672000Y-95514000D01*
G75*
G02*
X149537000Y-95649000I-135000J0D01*
G01*
G37*
D12*
X161433000Y-108458000D03*
X163433000Y-107808000D03*
X163433000Y-109108000D03*
D13*
X157607000Y-105140000D03*
X156957000Y-103140000D03*
X158257000Y-103140000D03*
D14*
X167005000Y-106950000D03*
X167955000Y-108950000D03*
X166055000Y-108950000D03*
D15*
X152765000Y-94742000D03*
X150765000Y-95692000D03*
X150765000Y-93792000D03*
D16*
X156681000Y-108033000D03*
X156681000Y-108883000D03*
X155231000Y-108033000D03*
X155231000Y-108883000D03*
D17*
X151922000Y-108586000D03*
X141702000Y-108586000D03*
X151922000Y-104656000D03*
X141702000Y-104656000D03*
D18*
X147062000Y-104081000D03*
X146562000Y-104081000D03*
X147562000Y-104081000D03*
X146062000Y-104081000D03*
X148062000Y-104081000D03*
X145562000Y-104081000D03*
X148562000Y-104081000D03*
X145062000Y-104081000D03*
D19*
X150012000Y-104081000D03*
X149212000Y-104081000D03*
X144412000Y-104081000D03*
X143612000Y-104081000D03*
G36*
G01*
X167963000Y-105580200D02*
X167963000Y-104630200D01*
G75*
G02*
X168213000Y-104380200I250000J0D01*
G01*
X168713000Y-104380200D01*
G75*
G02*
X168963000Y-104630200I0J-250000D01*
G01*
X168963000Y-105580200D01*
G75*
G02*
X168713000Y-105830200I-250000J0D01*
G01*
X168213000Y-105830200D01*
G75*
G02*
X167963000Y-105580200I0J250000D01*
G01*
G37*
G36*
G01*
X166063000Y-105580200D02*
X166063000Y-104630200D01*
G75*
G02*
X166313000Y-104380200I250000J0D01*
G01*
X166813000Y-104380200D01*
G75*
G02*
X167063000Y-104630200I0J-250000D01*
G01*
X167063000Y-105580200D01*
G75*
G02*
X166813000Y-105830200I-250000J0D01*
G01*
X166313000Y-105830200D01*
G75*
G02*
X166063000Y-105580200I0J250000D01*
G01*
G37*
G36*
G01*
X166210000Y-97340000D02*
X165260000Y-97340000D01*
G75*
G02*
X165010000Y-97090000I0J250000D01*
G01*
X165010000Y-96590000D01*
G75*
G02*
X165260000Y-96340000I250000J0D01*
G01*
X166210000Y-96340000D01*
G75*
G02*
X166460000Y-96590000I0J-250000D01*
G01*
X166460000Y-97090000D01*
G75*
G02*
X166210000Y-97340000I-250000J0D01*
G01*
G37*
G36*
G01*
X166210000Y-99240000D02*
X165260000Y-99240000D01*
G75*
G02*
X165010000Y-98990000I0J250000D01*
G01*
X165010000Y-98490000D01*
G75*
G02*
X165260000Y-98240000I250000J0D01*
G01*
X166210000Y-98240000D01*
G75*
G02*
X166460000Y-98490000I0J-250000D01*
G01*
X166460000Y-98990000D01*
G75*
G02*
X166210000Y-99240000I-250000J0D01*
G01*
G37*
G36*
G01*
X161094000Y-105443000D02*
X161094000Y-106393000D01*
G75*
G02*
X160844000Y-106643000I-250000J0D01*
G01*
X160344000Y-106643000D01*
G75*
G02*
X160094000Y-106393000I0J250000D01*
G01*
X160094000Y-105443000D01*
G75*
G02*
X160344000Y-105193000I250000J0D01*
G01*
X160844000Y-105193000D01*
G75*
G02*
X161094000Y-105443000I0J-250000D01*
G01*
G37*
G36*
G01*
X162994000Y-105443000D02*
X162994000Y-106393000D01*
G75*
G02*
X162744000Y-106643000I-250000J0D01*
G01*
X162244000Y-106643000D01*
G75*
G02*
X161994000Y-106393000I0J250000D01*
G01*
X161994000Y-105443000D01*
G75*
G02*
X162244000Y-105193000I250000J0D01*
G01*
X162744000Y-105193000D01*
G75*
G02*
X162994000Y-105443000I0J-250000D01*
G01*
G37*
G36*
G01*
X163924000Y-97340000D02*
X162974000Y-97340000D01*
G75*
G02*
X162724000Y-97090000I0J250000D01*
G01*
X162724000Y-96590000D01*
G75*
G02*
X162974000Y-96340000I250000J0D01*
G01*
X163924000Y-96340000D01*
G75*
G02*
X164174000Y-96590000I0J-250000D01*
G01*
X164174000Y-97090000D01*
G75*
G02*
X163924000Y-97340000I-250000J0D01*
G01*
G37*
G36*
G01*
X163924000Y-99240000D02*
X162974000Y-99240000D01*
G75*
G02*
X162724000Y-98990000I0J250000D01*
G01*
X162724000Y-98490000D01*
G75*
G02*
X162974000Y-98240000I250000J0D01*
G01*
X163924000Y-98240000D01*
G75*
G02*
X164174000Y-98490000I0J-250000D01*
G01*
X164174000Y-98990000D01*
G75*
G02*
X163924000Y-99240000I-250000J0D01*
G01*
G37*
G36*
G01*
X161667000Y-100640000D02*
X161167000Y-100640000D01*
G75*
G02*
X160942000Y-100415000I0J225000D01*
G01*
X160942000Y-99965000D01*
G75*
G02*
X161167000Y-99740000I225000J0D01*
G01*
X161667000Y-99740000D01*
G75*
G02*
X161892000Y-99965000I0J-225000D01*
G01*
X161892000Y-100415000D01*
G75*
G02*
X161667000Y-100640000I-225000J0D01*
G01*
G37*
G36*
G01*
X161667000Y-102190000D02*
X161167000Y-102190000D01*
G75*
G02*
X160942000Y-101965000I0J225000D01*
G01*
X160942000Y-101515000D01*
G75*
G02*
X161167000Y-101290000I225000J0D01*
G01*
X161667000Y-101290000D01*
G75*
G02*
X161892000Y-101515000I0J-225000D01*
G01*
X161892000Y-101965000D01*
G75*
G02*
X161667000Y-102190000I-225000J0D01*
G01*
G37*
G36*
G01*
X152215000Y-98265000D02*
X152215000Y-97315000D01*
G75*
G02*
X152465000Y-97065000I250000J0D01*
G01*
X152965000Y-97065000D01*
G75*
G02*
X153215000Y-97315000I0J-250000D01*
G01*
X153215000Y-98265000D01*
G75*
G02*
X152965000Y-98515000I-250000J0D01*
G01*
X152465000Y-98515000D01*
G75*
G02*
X152215000Y-98265000I0J250000D01*
G01*
G37*
G36*
G01*
X150315000Y-98265000D02*
X150315000Y-97315000D01*
G75*
G02*
X150565000Y-97065000I250000J0D01*
G01*
X151065000Y-97065000D01*
G75*
G02*
X151315000Y-97315000I0J-250000D01*
G01*
X151315000Y-98265000D01*
G75*
G02*
X151065000Y-98515000I-250000J0D01*
G01*
X150565000Y-98515000D01*
G75*
G02*
X150315000Y-98265000I0J250000D01*
G01*
G37*
G36*
G01*
X151074000Y-102358000D02*
X151074000Y-101858000D01*
G75*
G02*
X151299000Y-101633000I225000J0D01*
G01*
X151749000Y-101633000D01*
G75*
G02*
X151974000Y-101858000I0J-225000D01*
G01*
X151974000Y-102358000D01*
G75*
G02*
X151749000Y-102583000I-225000J0D01*
G01*
X151299000Y-102583000D01*
G75*
G02*
X151074000Y-102358000I0J225000D01*
G01*
G37*
G36*
G01*
X149524000Y-102358000D02*
X149524000Y-101858000D01*
G75*
G02*
X149749000Y-101633000I225000J0D01*
G01*
X150199000Y-101633000D01*
G75*
G02*
X150424000Y-101858000I0J-225000D01*
G01*
X150424000Y-102358000D01*
G75*
G02*
X150199000Y-102583000I-225000J0D01*
G01*
X149749000Y-102583000D01*
G75*
G02*
X149524000Y-102358000I0J225000D01*
G01*
G37*
G36*
G01*
X151203000Y-99611000D02*
X151203000Y-99271000D01*
G75*
G02*
X151343000Y-99131000I140000J0D01*
G01*
X151623000Y-99131000D01*
G75*
G02*
X151763000Y-99271000I0J-140000D01*
G01*
X151763000Y-99611000D01*
G75*
G02*
X151623000Y-99751000I-140000J0D01*
G01*
X151343000Y-99751000D01*
G75*
G02*
X151203000Y-99611000I0J140000D01*
G01*
G37*
G36*
G01*
X150243000Y-99611000D02*
X150243000Y-99271000D01*
G75*
G02*
X150383000Y-99131000I140000J0D01*
G01*
X150663000Y-99131000D01*
G75*
G02*
X150803000Y-99271000I0J-140000D01*
G01*
X150803000Y-99611000D01*
G75*
G02*
X150663000Y-99751000I-140000J0D01*
G01*
X150383000Y-99751000D01*
G75*
G02*
X150243000Y-99611000I0J140000D01*
G01*
G37*
G36*
G01*
X143058000Y-101604000D02*
X143058000Y-102104000D01*
G75*
G02*
X142833000Y-102329000I-225000J0D01*
G01*
X142383000Y-102329000D01*
G75*
G02*
X142158000Y-102104000I0J225000D01*
G01*
X142158000Y-101604000D01*
G75*
G02*
X142383000Y-101379000I225000J0D01*
G01*
X142833000Y-101379000D01*
G75*
G02*
X143058000Y-101604000I0J-225000D01*
G01*
G37*
G36*
G01*
X144608000Y-101604000D02*
X144608000Y-102104000D01*
G75*
G02*
X144383000Y-102329000I-225000J0D01*
G01*
X143933000Y-102329000D01*
G75*
G02*
X143708000Y-102104000I0J225000D01*
G01*
X143708000Y-101604000D01*
G75*
G02*
X143933000Y-101379000I225000J0D01*
G01*
X144383000Y-101379000D01*
G75*
G02*
X144608000Y-101604000I0J-225000D01*
G01*
G37*
M02*
